<svg width="101" height="100" viewBox="0 0 101 100" fill="none" xmlns="http://www.w3.org/2000/svg">
<circle cx="50.5" cy="50" r="50" fill="#202020"/>
<path d="M35.9535 65C35.8415 65 35.7415 64.972 35.6535 64.916C35.5735 64.852 35.4375 64.692 35.2455 64.436C35.0535 64.18 34.7095 63.696 34.2135 62.984C33.8215 62.424 33.5375 62.036 33.3615 61.82C33.1855 61.604 33.0055 61.452 32.8215 61.364C32.6375 61.268 32.3895 61.22 32.0775 61.22C31.9735 61.22 31.8775 61.224 31.7895 61.232C31.7015 61.24 31.6255 61.248 31.5615 61.256L31.5495 61.04C32.0535 61.016 32.4455 61.004 32.7255 61.004C33.0695 61.004 33.3335 61.044 33.5175 61.124C33.7015 61.196 33.8735 61.324 34.0335 61.508C34.2015 61.692 34.4615 62.032 34.8135 62.528L34.9695 62.744C35.3455 63.28 35.6495 63.688 35.8815 63.968C36.1135 64.24 36.3535 64.456 36.6015 64.616C36.8575 64.768 37.1455 64.848 37.4655 64.856C37.4815 64.856 37.4895 64.88 37.4895 64.928C37.4895 64.976 37.4815 65 37.4655 65H35.9535ZM30.0975 65C30.0815 65 30.0735 64.976 30.0735 64.928C30.0735 64.88 30.0815 64.856 30.0975 64.856C30.4015 64.856 30.6255 64.836 30.7695 64.796C30.9135 64.756 31.0095 64.68 31.0575 64.568C31.1135 64.448 31.1415 64.268 31.1415 64.028V58.472C31.1415 58.232 31.1175 58.056 31.0695 57.944C31.0215 57.832 30.9255 57.756 30.7815 57.716C30.6375 57.668 30.4135 57.644 30.1095 57.644C30.0935 57.644 30.0855 57.62 30.0855 57.572C30.0855 57.524 30.0935 57.5 30.1095 57.5L30.6975 57.512C31.0335 57.528 31.3055 57.536 31.5135 57.536C31.7455 57.536 32.0375 57.528 32.3895 57.512L32.9655 57.5C32.9815 57.5 32.9895 57.524 32.9895 57.572C32.9895 57.62 32.9815 57.644 32.9655 57.644C32.6615 57.644 32.4375 57.668 32.2935 57.716C32.1495 57.764 32.0495 57.848 31.9935 57.968C31.9455 58.08 31.9215 58.256 31.9215 58.496V64.028C31.9215 64.268 31.9455 64.448 31.9935 64.568C32.0495 64.68 32.1455 64.756 32.2815 64.796C32.4255 64.836 32.6535 64.856 32.9655 64.856C32.9815 64.856 32.9895 64.88 32.9895 64.928C32.9895 64.976 32.9815 65 32.9655 65C32.7175 65 32.5215 64.996 32.3775 64.988L31.5135 64.976L30.6975 64.988C30.5535 64.996 30.3535 65 30.0975 65ZM32.8935 61.088L34.4055 58.976C34.7655 58.48 34.9455 58.136 34.9455 57.944C34.9455 57.84 34.8935 57.764 34.7895 57.716C34.6935 57.668 34.5415 57.644 34.3335 57.644C34.3175 57.644 34.3095 57.62 34.3095 57.572C34.3095 57.524 34.3175 57.5 34.3335 57.5L34.8495 57.512C35.1535 57.528 35.4375 57.536 35.7015 57.536C35.9735 57.536 36.2535 57.528 36.5415 57.512L36.9735 57.5C36.9975 57.5 37.0095 57.524 37.0095 57.572C37.0095 57.62 36.9975 57.644 36.9735 57.644C36.5495 57.644 36.1775 57.748 35.8575 57.956C35.5455 58.156 35.2055 58.5 34.8375 58.988L33.1095 61.196L32.8935 61.088ZM41.2387 65.072C41.2067 65.088 41.1747 65.096 41.1427 65.096C41.0227 65.096 40.9187 65.004 40.8307 64.82C40.7427 64.636 40.6987 64.392 40.6987 64.088V61.82C40.6987 60.924 40.4467 60.476 39.9427 60.476C39.6707 60.476 39.4627 60.568 39.3187 60.752C39.1827 60.928 39.0907 61.132 39.0427 61.364C39.0107 61.516 38.9627 61.636 38.8987 61.724C38.8427 61.812 38.7387 61.856 38.5867 61.856C38.4587 61.856 38.3587 61.82 38.2867 61.748C38.2227 61.676 38.1907 61.592 38.1907 61.496C38.1907 61.304 38.3147 61.112 38.5627 60.92C38.8107 60.728 39.1067 60.568 39.4507 60.44C39.7947 60.312 40.1027 60.248 40.3747 60.248C40.7027 60.248 40.9507 60.352 41.1187 60.56C41.2867 60.768 41.3707 61.068 41.3707 61.46V63.704C41.3707 63.984 41.4067 64.188 41.4787 64.316C41.5507 64.444 41.6667 64.508 41.8267 64.508C41.9867 64.508 42.1867 64.456 42.4267 64.352H42.4507C42.4827 64.352 42.5027 64.372 42.5107 64.412C42.5187 64.444 42.5067 64.468 42.4747 64.484L41.2387 65.072ZM39.0787 65.084C38.7827 65.084 38.5507 65.008 38.3827 64.856C38.2227 64.696 38.1427 64.496 38.1427 64.256C38.1427 64.016 38.2387 63.808 38.4307 63.632C38.6227 63.456 38.9387 63.288 39.3787 63.128L40.8187 62.588L40.8547 62.744L39.5827 63.236C39.3587 63.324 39.1947 63.428 39.0907 63.548C38.9947 63.66 38.9467 63.796 38.9467 63.956C38.9467 64.148 39.0067 64.312 39.1267 64.448C39.2547 64.576 39.4187 64.64 39.6187 64.64C39.7787 64.64 39.9707 64.576 40.1947 64.448L40.9507 63.992L40.9747 64.148L40.0867 64.724C39.8867 64.852 39.7107 64.944 39.5587 65C39.4067 65.056 39.2467 65.084 39.0787 65.084ZM42.702 68.3C42.678 68.3 42.666 68.276 42.666 68.228C42.666 68.18 42.678 68.156 42.702 68.156C42.958 68.156 43.146 68.132 43.266 68.084C43.386 68.044 43.466 67.968 43.506 67.856C43.554 67.744 43.578 67.568 43.578 67.328V61.34C43.578 61.108 43.55 60.936 43.494 60.824C43.438 60.704 43.338 60.624 43.194 60.584C43.058 60.536 42.85 60.512 42.57 60.512C42.546 60.512 42.534 60.488 42.534 60.44C42.534 60.392 42.546 60.368 42.57 60.368H44.022C44.118 60.368 44.178 60.388 44.202 60.428C44.234 60.468 44.25 60.552 44.25 60.68V67.328C44.25 67.568 44.278 67.744 44.334 67.856C44.398 67.968 44.514 68.044 44.682 68.084C44.85 68.132 45.106 68.156 45.45 68.156C45.474 68.156 45.486 68.18 45.486 68.228C45.486 68.276 45.474 68.3 45.45 68.3C45.17 68.3 44.95 68.296 44.79 68.288L43.914 68.276L43.206 68.288C43.086 68.296 42.918 68.3 42.702 68.3ZM45.522 65.156C45.21 65.156 44.938 65.116 44.706 65.036C44.474 64.964 44.218 64.832 43.938 64.64L44.118 63.98C44.358 64.284 44.61 64.516 44.874 64.676C45.138 64.828 45.474 64.904 45.882 64.904C46.306 64.904 46.654 64.716 46.926 64.34C47.206 63.964 47.346 63.448 47.346 62.792C47.346 62.12 47.194 61.6 46.89 61.232C46.594 60.856 46.218 60.668 45.762 60.668C45.434 60.668 45.138 60.756 44.874 60.932C44.618 61.1 44.346 61.344 44.058 61.664L43.95 61.568C44.358 61.104 44.746 60.764 45.114 60.548C45.49 60.324 45.874 60.212 46.266 60.212C46.594 60.212 46.898 60.3 47.178 60.476C47.458 60.652 47.682 60.908 47.85 61.244C48.018 61.58 48.102 61.972 48.102 62.42C48.102 63.02 47.966 63.528 47.694 63.944C47.422 64.352 47.086 64.656 46.686 64.856C46.294 65.056 45.906 65.156 45.522 65.156ZM49.9846 65C49.9686 65 49.9606 64.976 49.9606 64.928C49.9606 64.88 49.9686 64.856 49.9846 64.856C50.2166 64.856 50.3846 64.836 50.4886 64.796C50.5926 64.756 50.6646 64.68 50.7046 64.568C50.7446 64.448 50.7646 64.268 50.7646 64.028V61.364C50.7646 61.036 50.7246 60.82 50.6446 60.716C50.5646 60.604 50.4046 60.548 50.1646 60.548C49.8366 60.548 49.5846 60.652 49.4086 60.86C49.2406 61.06 49.1406 61.42 49.1086 61.94C49.1086 61.956 49.0846 61.964 49.0366 61.964C48.9886 61.964 48.9646 61.956 48.9646 61.94L48.9526 60.14C48.9526 60.1 48.9766 60.08 49.0246 60.08C49.0726 60.08 49.0966 60.1 49.0966 60.14C49.0966 60.244 49.2526 60.312 49.5646 60.344C49.8766 60.368 50.3886 60.38 51.1006 60.38C51.7966 60.38 52.3006 60.368 52.6126 60.344C52.9326 60.312 53.0926 60.244 53.0926 60.14C53.0926 60.1 53.1166 60.08 53.1646 60.08C53.2126 60.08 53.2366 60.1 53.2366 60.14L53.2246 61.94C53.2246 61.956 53.2006 61.964 53.1526 61.964C53.1046 61.964 53.0806 61.956 53.0806 61.94C53.0486 61.42 52.9406 61.06 52.7566 60.86C52.5806 60.652 52.3286 60.548 52.0006 60.548C51.7606 60.548 51.6046 60.6 51.5326 60.704C51.4686 60.808 51.4366 61.028 51.4366 61.364V64.028C51.4366 64.268 51.4526 64.448 51.4846 64.568C51.5246 64.68 51.5966 64.756 51.7006 64.796C51.8046 64.836 51.9686 64.856 52.1926 64.856C52.2166 64.856 52.2286 64.88 52.2286 64.928C52.2286 64.976 52.2166 65 52.1926 65C51.9926 65 51.8366 64.996 51.7246 64.988L51.1006 64.976L50.4886 64.988C50.3686 64.996 50.2006 65 49.9846 65ZM57.3989 65.072C57.3669 65.088 57.3349 65.096 57.3029 65.096C57.1829 65.096 57.0789 65.004 56.9909 64.82C56.9029 64.636 56.8589 64.392 56.8589 64.088V61.82C56.8589 60.924 56.6069 60.476 56.1029 60.476C55.8309 60.476 55.6229 60.568 55.4789 60.752C55.3429 60.928 55.2509 61.132 55.2029 61.364C55.1709 61.516 55.1229 61.636 55.0589 61.724C55.0029 61.812 54.8989 61.856 54.7469 61.856C54.6189 61.856 54.5189 61.82 54.4469 61.748C54.3829 61.676 54.3509 61.592 54.3509 61.496C54.3509 61.304 54.4749 61.112 54.7229 60.92C54.9709 60.728 55.2669 60.568 55.6109 60.44C55.9549 60.312 56.2629 60.248 56.5349 60.248C56.8629 60.248 57.1109 60.352 57.2789 60.56C57.4469 60.768 57.5309 61.068 57.5309 61.46V63.704C57.5309 63.984 57.5669 64.188 57.6389 64.316C57.7109 64.444 57.8269 64.508 57.9869 64.508C58.1469 64.508 58.3469 64.456 58.5869 64.352H58.6109C58.6429 64.352 58.6629 64.372 58.6709 64.412C58.6789 64.444 58.6669 64.468 58.6349 64.484L57.3989 65.072ZM55.2389 65.084C54.9429 65.084 54.7109 65.008 54.5429 64.856C54.3829 64.696 54.3029 64.496 54.3029 64.256C54.3029 64.016 54.3989 63.808 54.5909 63.632C54.7829 63.456 55.0989 63.288 55.5389 63.128L56.9789 62.588L57.0149 62.744L55.7429 63.236C55.5189 63.324 55.3549 63.428 55.2509 63.548C55.1549 63.66 55.1069 63.796 55.1069 63.956C55.1069 64.148 55.1669 64.312 55.2869 64.448C55.4149 64.576 55.5789 64.64 55.7789 64.64C55.9389 64.64 56.1309 64.576 56.3549 64.448L57.1109 63.992L57.1349 64.148L56.2469 64.724C56.0469 64.852 55.8709 64.944 55.7189 65C55.5669 65.056 55.4069 65.084 55.2389 65.084ZM61.5348 60.188C61.5508 60.156 61.5748 60.14 61.6068 60.14C61.6388 60.14 61.6628 60.156 61.6788 60.188L63.7908 65H62.9868L61.3188 61.148L61.5948 60.776L59.8428 65H59.5188L61.5348 60.188ZM58.9668 66.56C58.9668 66.024 58.9508 65.58 58.9188 65.228C58.9028 65.036 58.8948 64.912 58.8948 64.856C58.8948 64.784 58.8988 64.744 58.9068 64.736C58.9228 64.72 58.9588 64.712 59.0148 64.712H64.2468C64.3028 64.712 64.3348 64.72 64.3428 64.736C64.3588 64.744 64.3668 64.784 64.3668 64.856C64.3668 64.904 64.3588 65.032 64.3428 65.24C64.3108 65.592 64.2948 66.032 64.2948 66.56C64.2948 66.6 64.2708 66.62 64.2228 66.62C64.1828 66.62 64.1628 66.6 64.1628 66.56C64.1628 65.52 63.7068 65 62.7948 65H60.3588C59.5268 65 59.1108 65.52 59.1108 66.56C59.1108 66.6 59.0868 66.62 59.0388 66.62C58.9908 66.62 58.9668 66.6 58.9668 66.56ZM68.2387 65.072C68.2067 65.088 68.1747 65.096 68.1427 65.096C68.0227 65.096 67.9187 65.004 67.8307 64.82C67.7427 64.636 67.6987 64.392 67.6987 64.088V61.82C67.6987 60.924 67.4467 60.476 66.9427 60.476C66.6707 60.476 66.4627 60.568 66.3187 60.752C66.1827 60.928 66.0907 61.132 66.0427 61.364C66.0107 61.516 65.9627 61.636 65.8987 61.724C65.8427 61.812 65.7387 61.856 65.5867 61.856C65.4587 61.856 65.3587 61.82 65.2867 61.748C65.2227 61.676 65.1907 61.592 65.1907 61.496C65.1907 61.304 65.3147 61.112 65.5627 60.92C65.8107 60.728 66.1067 60.568 66.4507 60.44C66.7947 60.312 67.1027 60.248 67.3747 60.248C67.7027 60.248 67.9507 60.352 68.1187 60.56C68.2867 60.768 68.3707 61.068 68.3707 61.46V63.704C68.3707 63.984 68.4067 64.188 68.4787 64.316C68.5507 64.444 68.6667 64.508 68.8267 64.508C68.9867 64.508 69.1867 64.456 69.4267 64.352H69.4507C69.4827 64.352 69.5027 64.372 69.5107 64.412C69.5187 64.444 69.5067 64.468 69.4747 64.484L68.2387 65.072ZM66.0787 65.084C65.7827 65.084 65.5507 65.008 65.3827 64.856C65.2227 64.696 65.1427 64.496 65.1427 64.256C65.1427 64.016 65.2387 63.808 65.4307 63.632C65.6227 63.456 65.9387 63.288 66.3787 63.128L67.8187 62.588L67.8547 62.744L66.5827 63.236C66.3587 63.324 66.1947 63.428 66.0907 63.548C65.9947 63.66 65.9467 63.796 65.9467 63.956C65.9467 64.148 66.0067 64.312 66.1267 64.448C66.2547 64.576 66.4187 64.64 66.6187 64.64C66.7787 64.64 66.9707 64.576 67.1947 64.448L67.9507 63.992L67.9747 64.148L67.0867 64.724C66.8867 64.852 66.7107 64.944 66.5587 65C66.4067 65.056 66.2467 65.084 66.0787 65.084ZM32.7799 80C32.7559 80 32.7439 79.976 32.7439 79.928C32.7439 79.88 32.7559 79.856 32.7799 79.856C33.0039 79.856 33.1679 79.836 33.2719 79.796C33.3759 79.756 33.4439 79.68 33.4759 79.568C33.5159 79.456 33.5359 79.276 33.5359 79.028V76.34C33.5359 76.092 33.5159 75.912 33.4759 75.8C33.4439 75.688 33.3759 75.612 33.2719 75.572C33.1759 75.532 33.0159 75.512 32.7919 75.512C32.7679 75.512 32.7559 75.488 32.7559 75.44C32.7559 75.392 32.7679 75.368 32.7919 75.368C32.9839 75.368 33.1359 75.372 33.2479 75.38L33.8959 75.392L34.5919 75.38C34.7199 75.372 34.8919 75.368 35.1079 75.368C35.1319 75.368 35.1439 75.392 35.1439 75.44C35.1439 75.488 35.1319 75.512 35.1079 75.512C34.8519 75.512 34.6599 75.536 34.5319 75.584C34.4119 75.624 34.3279 75.704 34.2799 75.824C34.2399 75.944 34.2199 76.124 34.2199 76.364V79.028C34.2199 79.268 34.2359 79.448 34.2679 79.568C34.3079 79.68 34.3799 79.756 34.4839 79.796C34.5879 79.836 34.7519 79.856 34.9759 79.856C34.9919 79.856 34.9999 79.88 34.9999 79.928C34.9999 79.976 34.9919 80 34.9759 80C34.7759 80 34.6159 79.996 34.4959 79.988L33.8959 79.976L33.2479 79.988C33.1359 79.996 32.9799 80 32.7799 80ZM36.6079 80C36.5519 80 36.5119 79.988 36.4879 79.964C36.4719 79.932 36.4079 79.82 36.2959 79.628C36.1919 79.436 36.0439 79.176 35.8519 78.848C35.6519 78.52 35.4839 78.276 35.3479 78.116C35.2199 77.956 35.0839 77.848 34.9399 77.792C34.8039 77.728 34.6279 77.696 34.4119 77.696C34.2759 77.696 34.0999 77.708 33.8839 77.732L33.8719 77.516C34.0239 77.516 34.2279 77.508 34.4839 77.492C34.7239 77.476 34.8839 77.468 34.9639 77.468C35.2439 77.468 35.4599 77.5 35.6119 77.564C35.7639 77.62 35.8999 77.72 36.0199 77.864C36.1479 78.008 36.3239 78.256 36.5479 78.608L36.7159 78.884C36.8759 79.14 37.0039 79.332 37.0999 79.46C37.1959 79.58 37.3079 79.676 37.4359 79.748C37.5639 79.812 37.7319 79.848 37.9399 79.856C37.9559 79.856 37.9639 79.88 37.9639 79.928C37.9639 79.976 37.9559 80 37.9399 80H36.6079ZM34.9639 77.468C35.1639 77.468 35.3639 77.276 35.5639 76.892L35.7199 76.592C35.9759 76.088 36.1839 75.74 36.3439 75.548C36.5039 75.356 36.7119 75.26 36.9679 75.26C37.1439 75.26 37.2799 75.3 37.3759 75.38C37.4719 75.46 37.5199 75.56 37.5199 75.68C37.5199 75.808 37.4759 75.916 37.3879 76.004C37.2999 76.092 37.1839 76.136 37.0399 76.136C36.9519 76.136 36.8599 76.108 36.7639 76.052C36.6679 75.996 36.5919 75.968 36.5359 75.968C36.3759 75.968 36.1119 76.296 35.7439 76.952C35.6159 77.184 35.4919 77.364 35.3719 77.492C35.2519 77.612 35.1159 77.672 34.9639 77.672V77.468ZM38.5805 77.564H42.6005V77.804H38.5805V77.564ZM40.5005 80.156C40.0365 80.156 39.6245 80.044 39.2645 79.82C38.9125 79.588 38.6405 79.28 38.4485 78.896C38.2565 78.504 38.1605 78.08 38.1605 77.624C38.1605 77.104 38.2845 76.664 38.5325 76.304C38.7885 75.936 39.1125 75.664 39.5045 75.488C39.9045 75.304 40.3085 75.212 40.7165 75.212C41.1885 75.212 41.6005 75.328 41.9525 75.56C42.3045 75.792 42.5725 76.1 42.7565 76.484C42.9485 76.86 43.0445 77.26 43.0445 77.684C43.0445 78.18 42.9285 78.616 42.6965 78.992C42.4645 79.36 42.1525 79.648 41.7605 79.856C41.3765 80.056 40.9565 80.156 40.5005 80.156ZM40.8485 79.928C41.2885 79.928 41.6285 79.772 41.8685 79.46C42.1085 79.148 42.2285 78.668 42.2285 78.02C42.2285 77.524 42.1445 77.08 41.9765 76.688C41.8165 76.296 41.5925 75.992 41.3045 75.776C41.0165 75.552 40.6885 75.44 40.3205 75.44C39.8885 75.44 39.5525 75.596 39.3125 75.908C39.0805 76.22 38.9645 76.668 38.9645 77.252C38.9645 77.74 39.0445 78.188 39.2045 78.596C39.3645 79.004 39.5885 79.328 39.8765 79.568C40.1645 79.808 40.4885 79.928 40.8485 79.928ZM43.6747 83.3C43.6507 83.3 43.6387 83.276 43.6387 83.228C43.6387 83.18 43.6507 83.156 43.6747 83.156C43.9307 83.156 44.1187 83.132 44.2387 83.084C44.3587 83.044 44.4387 82.968 44.4787 82.856C44.5267 82.744 44.5507 82.568 44.5507 82.328V76.34C44.5507 76.108 44.5227 75.936 44.4667 75.824C44.4107 75.704 44.3107 75.624 44.1667 75.584C44.0307 75.536 43.8227 75.512 43.5427 75.512C43.5187 75.512 43.5067 75.488 43.5067 75.44C43.5067 75.392 43.5187 75.368 43.5427 75.368H44.9947C45.0907 75.368 45.1507 75.388 45.1747 75.428C45.2067 75.468 45.2227 75.552 45.2227 75.68V82.328C45.2227 82.568 45.2507 82.744 45.3067 82.856C45.3707 82.968 45.4867 83.044 45.6547 83.084C45.8227 83.132 46.0787 83.156 46.4227 83.156C46.4467 83.156 46.4587 83.18 46.4587 83.228C46.4587 83.276 46.4467 83.3 46.4227 83.3C46.1427 83.3 45.9227 83.296 45.7627 83.288L44.8867 83.276L44.1787 83.288C44.0587 83.296 43.8907 83.3 43.6747 83.3ZM46.4947 80.156C46.1827 80.156 45.9107 80.116 45.6787 80.036C45.4467 79.964 45.1907 79.832 44.9107 79.64L45.0907 78.98C45.3307 79.284 45.5827 79.516 45.8467 79.676C46.1107 79.828 46.4467 79.904 46.8547 79.904C47.2787 79.904 47.6267 79.716 47.8987 79.34C48.1787 78.964 48.3187 78.448 48.3187 77.792C48.3187 77.12 48.1667 76.6 47.8627 76.232C47.5667 75.856 47.1907 75.668 46.7347 75.668C46.4067 75.668 46.1107 75.756 45.8467 75.932C45.5907 76.1 45.3187 76.344 45.0307 76.664L44.9227 76.568C45.3307 76.104 45.7187 75.764 46.0867 75.548C46.4627 75.324 46.8467 75.212 47.2387 75.212C47.5667 75.212 47.8707 75.3 48.1507 75.476C48.4307 75.652 48.6547 75.908 48.8227 76.244C48.9907 76.58 49.0747 76.972 49.0747 77.42C49.0747 78.02 48.9387 78.528 48.6667 78.944C48.3947 79.352 48.0587 79.656 47.6587 79.856C47.2667 80.056 46.8787 80.156 46.4947 80.156ZM52.3013 80.144C51.7813 80.144 51.3453 80.032 50.9933 79.808C50.6413 79.576 50.3813 79.28 50.2133 78.92C50.0453 78.56 49.9613 78.18 49.9613 77.78C49.9613 77.268 50.0893 76.824 50.3453 76.448C50.6013 76.064 50.9293 75.772 51.3293 75.572C51.7373 75.364 52.1533 75.26 52.5773 75.26C52.9293 75.26 53.2493 75.332 53.5373 75.476C53.8333 75.612 53.9813 75.784 53.9813 75.992C53.9813 76.096 53.9413 76.188 53.8613 76.268C53.7893 76.34 53.6893 76.376 53.5613 76.376C53.3453 76.376 53.1693 76.244 53.0333 75.98C52.9293 75.82 52.8173 75.7 52.6973 75.62C52.5773 75.54 52.4053 75.5 52.1813 75.5C51.7333 75.5 51.3813 75.676 51.1253 76.028C50.8773 76.372 50.7533 76.836 50.7533 77.42C50.7533 78.092 50.9213 78.644 51.2573 79.076C51.5933 79.508 52.0973 79.724 52.7693 79.724C53.2573 79.724 53.6653 79.592 53.9933 79.328H54.0053C54.0293 79.328 54.0493 79.34 54.0653 79.364C54.0893 79.388 54.0933 79.408 54.0773 79.424C53.7973 79.672 53.5133 79.856 53.2253 79.976C52.9453 80.088 52.6373 80.144 52.3013 80.144ZM57.0206 80.144C56.5566 80.144 56.1606 80.036 55.8326 79.82C55.5046 79.604 55.2526 79.32 55.0766 78.968C54.9086 78.616 54.8246 78.24 54.8246 77.84C54.8246 77.368 54.9366 76.936 55.1606 76.544C55.3846 76.144 55.6886 75.832 56.0726 75.608C56.4646 75.376 56.8926 75.26 57.3566 75.26C57.8046 75.26 58.1486 75.38 58.3886 75.62C58.6286 75.86 58.7486 76.196 58.7486 76.628C58.7486 76.74 58.7366 76.82 58.7126 76.868C58.6966 76.916 58.6606 76.94 58.6046 76.94H57.9326L57.9446 76.724C57.9446 76.324 57.8566 76.02 57.6806 75.812C57.5046 75.604 57.2646 75.5 56.9606 75.5C56.5366 75.5 56.2046 75.668 55.9646 76.004C55.7326 76.34 55.6166 76.8 55.6166 77.384C55.6166 78.08 55.7806 78.644 56.1086 79.076C56.4366 79.508 56.8966 79.724 57.4886 79.724C57.7286 79.724 57.9326 79.692 58.1006 79.628C58.2766 79.564 58.4726 79.464 58.6886 79.328H58.7006C58.7246 79.328 58.7446 79.344 58.7606 79.376C58.7846 79.4 58.7886 79.424 58.7726 79.448C58.2286 79.912 57.6446 80.144 57.0206 80.144ZM55.3886 76.796L58.1126 76.748V76.94L55.4006 76.952L55.3886 76.796ZM60.719 80C60.703 80 60.695 79.976 60.695 79.928C60.695 79.88 60.703 79.856 60.719 79.856C60.951 79.856 61.119 79.836 61.223 79.796C61.327 79.756 61.399 79.68 61.439 79.568C61.479 79.448 61.499 79.268 61.499 79.028V76.364C61.499 76.036 61.459 75.82 61.379 75.716C61.299 75.604 61.139 75.548 60.899 75.548C60.571 75.548 60.319 75.652 60.143 75.86C59.975 76.06 59.875 76.42 59.843 76.94C59.843 76.956 59.819 76.964 59.771 76.964C59.723 76.964 59.699 76.956 59.699 76.94L59.687 75.14C59.687 75.1 59.711 75.08 59.759 75.08C59.807 75.08 59.831 75.1 59.831 75.14C59.831 75.244 59.987 75.312 60.299 75.344C60.611 75.368 61.123 75.38 61.835 75.38C62.531 75.38 63.035 75.368 63.347 75.344C63.667 75.312 63.827 75.244 63.827 75.14C63.827 75.1 63.851 75.08 63.899 75.08C63.947 75.08 63.971 75.1 63.971 75.14L63.959 76.94C63.959 76.956 63.935 76.964 63.887 76.964C63.839 76.964 63.815 76.956 63.815 76.94C63.783 76.42 63.675 76.06 63.491 75.86C63.315 75.652 63.063 75.548 62.735 75.548C62.495 75.548 62.339 75.6 62.267 75.704C62.203 75.808 62.171 76.028 62.171 76.364V79.028C62.171 79.268 62.187 79.448 62.219 79.568C62.259 79.68 62.331 79.756 62.435 79.796C62.539 79.836 62.703 79.856 62.927 79.856C62.951 79.856 62.963 79.88 62.963 79.928C62.963 79.976 62.951 80 62.927 80C62.727 80 62.571 79.996 62.459 79.988L61.835 79.976L61.223 79.988C61.103 79.996 60.935 80 60.719 80ZM67.0892 79.88V80.216L65.1932 76.364C65.0092 76.012 64.8692 75.784 64.7732 75.68C64.6772 75.568 64.5532 75.512 64.4012 75.512C64.3852 75.512 64.3772 75.488 64.3772 75.44C64.3772 75.392 64.3852 75.368 64.4012 75.368L64.8092 75.38C64.9052 75.388 65.0372 75.392 65.2052 75.392L65.9732 75.38C66.0852 75.372 66.2412 75.368 66.4412 75.368C66.4572 75.368 66.4652 75.392 66.4652 75.44C66.4652 75.488 66.4572 75.512 66.4412 75.512C65.9772 75.512 65.7452 75.604 65.7452 75.788C65.7452 75.836 65.7652 75.9 65.8052 75.98L67.4492 79.364L67.1492 79.82L68.3492 76.472C68.4132 76.28 68.4452 76.128 68.4452 76.016C68.4452 75.832 68.3732 75.704 68.2292 75.632C68.0852 75.552 67.8492 75.512 67.5212 75.512C67.5052 75.512 67.4972 75.488 67.4972 75.44C67.4972 75.392 67.5052 75.368 67.5212 75.368C67.7372 75.368 67.9012 75.372 68.0132 75.38L68.7332 75.392L69.1652 75.38C69.2452 75.372 69.3692 75.368 69.5372 75.368C69.5612 75.368 69.5732 75.392 69.5732 75.44C69.5732 75.488 69.5612 75.512 69.5372 75.512C69.3372 75.512 69.1652 75.584 69.0212 75.728C68.8772 75.864 68.7412 76.1 68.6132 76.436L66.6692 81.44C66.4612 81.968 66.3052 82.464 66.2012 82.928C66.1612 83.096 66.1292 83.2 66.1052 83.24C66.0812 83.28 66.0212 83.3 65.9252 83.3H64.3652C64.3492 83.3 64.3412 83.276 64.3412 83.228C64.3412 83.18 64.3492 83.156 64.3652 83.156C64.8292 83.14 65.2252 83.008 65.5532 82.76C65.8892 82.512 66.1972 82.048 66.4772 81.368L67.0892 79.88Z" fill="white"/>
<path d="M62.5 27.55C62.5 26.0332 62.2025 24.5313 61.6246 23.13C61.0467 21.7287 60.1996 20.4554 59.1317 19.3829C58.0639 18.3104 56.7961 17.4596 55.4009 16.8792C54.0056 16.2987 52.5102 16 51 16C49.4898 16 47.9944 16.2987 46.5991 16.8792C45.2039 17.4596 43.9361 18.3104 42.8683 19.3829C41.8004 20.4554 40.9533 21.7287 40.3754 23.13C39.7975 24.5313 39.5 26.0332 39.5 27.55C39.5 29.8385 40.1719 31.9671 41.3154 33.7623H41.3022L51 49L60.6978 33.7623H60.6863C61.8706 31.9086 62.5001 29.7524 62.5 27.55ZM51 32.5C49.6929 32.5 48.4393 31.9785 47.515 31.0502C46.5907 30.1219 46.0714 28.8628 46.0714 27.55C46.0714 26.2372 46.5907 24.9781 47.515 24.0498C48.4393 23.1215 49.6929 22.6 51 22.6C52.3071 22.6 53.5607 23.1215 54.485 24.0498C55.4093 24.9781 55.9286 26.2372 55.9286 27.55C55.9286 28.8628 55.4093 30.1219 54.485 31.0502C53.5607 31.9785 52.3071 32.5 51 32.5Z" fill="white"/>
</svg>
