<svg width="150" height="206" viewBox="0 0 150 206" fill="none" xmlns="http://www.w3.org/2000/svg">
<path d="M0.00187528 35.9886C1.12632 38.509 2.58329 40.6944 5.53472 41.3521C7.72611 41.8404 9.87 41.7176 11.8651 40.8749C10.9569 40.1701 9.95938 39.5192 9.10995 38.7138C6.82293 36.5446 7.09482 34.5572 8.05926 32.3148C8.68805 30.8523 12.1245 29.7478 14.0415 30.2219C18.9093 31.425 21.4382 37.677 18.6681 41.8795C16.3754 45.3579 13.8415 48.6806 11.582 52.1795C9.30684 55.7032 8.20802 59.4131 10.8088 63.3389C11.0726 63.7373 11.0794 64.3031 11.1576 64.6078C9.85625 63.9309 8.56179 63.1211 7.1642 62.5701C5.84724 62.0508 3.76086 62.8078 3.05019 63.8731C2.15389 65.2165 2.28077 66.4475 3.2002 67.8312C6.29352 72.4848 9.5856 76.9734 13.4096 81.0686C14.0934 81.8008 14.7041 82.6248 15.2141 83.4854C15.8854 84.6184 15.6247 85.9524 14.7934 86.2825C13.7202 86.7082 12.9152 86.1702 12.3627 84.6612C12.3177 84.5377 12.2514 84.4217 12.1945 84.3019C4.46778 87.9802 0.61254 99.9853 8.62117 108.294C7.868 109.747 6.86231 111.047 6.50478 112.504C5.57535 116.29 6.3379 119.913 8.23302 123.313C10.0688 126.607 12.9346 128.928 15.8485 131.171C19.7356 134.163 23.7959 136.938 27.6192 140.005C31.9295 143.464 35.4535 147.604 37.0867 153.002C38.5149 157.722 38.0361 162.348 35.9366 166.803C35.4466 167.843 34.8816 168.846 34.2909 169.982C36.4267 171.529 37.9955 173.683 39.0562 176.182C41.337 181.559 41.6676 186.911 38.2699 191.968C36.1742 195.087 32.889 196.576 29.3493 197.486C26.3054 198.269 23.274 198.899 20.0944 197.858C16.1048 196.551 14.1796 193.65 13.2671 189.844C12.7258 187.586 12.7933 185.387 13.9246 183.271C15.4829 180.357 19.4162 179.03 22.4539 180.443C24.289 181.296 24.9409 184.604 23.4165 186.052C22.4877 186.934 21.2495 187.494 20.1519 188.197C22.0283 190.797 26.2967 191.041 29.1256 188.621C32.2983 185.909 33.9603 180.463 30.4975 176.219C29.8181 175.386 28.8043 174.797 27.878 174.198C27.1186 173.707 26.2592 173.369 25.5041 172.993C26.9598 170.848 28.4837 168.832 29.7531 166.669C31.2113 164.185 31.0157 161.489 30.4244 158.748C29.4694 154.32 26.3298 151.42 23.1052 148.773C19.1443 145.521 14.7103 142.844 10.6625 139.688C8.0005 137.613 6.42541 134.656 5.41909 131.287C3.52397 132.595 2.8158 134.425 2.67079 136.478C2.38703 140.493 3.55772 143.983 6.71042 146.675C7.33859 147.211 7.98113 147.731 8.86181 148.462C5.65973 149.025 3.92025 150.682 3.30021 153.304C2.53891 156.524 3.15395 159.569 5.61285 161.891C7.41609 163.593 9.72436 164.032 12.297 163.257C10.3438 161.7 9.31184 159.925 9.98688 157.458C10.655 155.014 13.3165 153.395 15.7985 153.999C21.7064 155.435 23.6246 160.185 22.2539 165.643C21.2351 169.7 17.6055 172.139 13.5696 172.054C11.7039 172.015 9.82312 172.095 7.978 171.877C6.86918 171.746 5.76599 171.244 4.75405 170.728C3.78461 170.234 2.93643 169.507 2.20139 168.997C2.99894 170.995 3.92087 173.127 4.70217 175.308C5.5066 177.554 5.10282 179.894 4.22589 181.93C3.27521 184.137 3.14207 186.344 2.90956 188.638C2.38765 193.787 4.54904 197.894 7.62423 201.717C9.97688 204.642 13.0439 206.039 16.8086 205.999C19.5581 205.969 22.3077 205.997 25.0578 205.992C30.6807 205.984 35.4522 203.953 39.6131 200.216C42.0058 198.068 44.1359 195.752 45.6798 192.946C47.1686 190.24 48.1687 187.377 48.3349 184.25C48.5506 180.194 47.8936 176.302 46.2248 172.599C45.7554 171.556 45.2585 170.442 44.4809 169.641C43.4065 168.535 43.4852 167.619 44.1972 166.408C45.8673 163.567 46.5554 160.378 46.4836 157.175C46.3973 153.347 45.0541 149.827 42.7627 146.65C39.2331 141.756 35.1728 137.39 30.4419 133.628C26.7436 130.687 22.9133 127.881 19.4431 124.692C16.2573 121.765 13.9346 118.088 13.1315 113.769C12.5183 110.474 12.1195 107.146 12.592 103.722C12.9489 101.137 13.0808 98.6034 14.6909 96.3778C16.8223 93.4317 19.6531 91.8768 23.2821 91.5678C26.6536 91.2811 29.8813 91.6094 32.9396 93.1506C37.7149 95.5569 39.1775 102.553 35.1228 106.824C33.1571 108.894 30.6338 109.808 27.7267 108.835C25.1666 107.979 24.2547 105.824 23.5921 103.508C23.399 102.833 23.3102 102.128 23.174 101.435C20.3294 102.836 19.4381 109.766 21.0463 113.411C22.7664 117.309 28.0024 119.887 33.5996 117.802C33.7503 119.391 33.7752 121.038 34.0871 122.628C34.6234 125.362 36.361 127.284 38.5743 128.937C39.9906 129.995 41.1526 131.393 42.397 132.669C42.8996 133.185 43.3177 133.782 43.774 134.342C43.9878 134.243 44.2015 134.144 44.4153 134.045C44.0171 131.629 43.7159 129.19 43.1877 126.801C42.7983 125.039 41.7645 123.368 41.6345 121.61C41.4014 118.462 41.2838 115.224 41.7783 112.128C42.182 109.6 43.4127 107.159 44.5247 104.795C45.8248 102.03 46.0742 99.2456 45.0916 96.4286C44.4159 94.4921 43.3934 92.6747 42.5433 90.8424C50.0263 88.5535 51.0807 83.7379 50.8976 77.1285C49.385 78.2683 47.9349 79.4169 46.4273 80.4847C43.9034 82.2723 40.9738 83.1032 37.9911 83.638C34.0115 84.3522 30.1307 83.9172 26.3785 82.2829C22.5789 80.6281 20.3813 77.6187 18.8724 73.9709C17.6161 70.933 17.0961 67.7245 16.8592 64.4806C16.4742 59.1972 20.2757 53.727 25.3478 51.7799C29.245 50.2839 32.9246 50.4794 36.5354 52.5164C39.66 54.2792 42.0289 59.0011 41.0088 61.8429C40.2925 63.8378 38.7418 64.5178 37.028 64.9118C33.3846 65.7501 30.6507 63.7472 30.0519 60.0057C29.9388 59.2977 29.7869 58.5959 29.6244 57.739C27.978 58.6065 26.973 59.9027 26.3954 61.6791C24.9191 66.2179 27.7974 71.7812 31.8745 72.725C35.5322 73.5719 39.1687 73.3492 42.7139 71.9897C46.5367 70.5235 48.7649 67.5514 49.9638 63.9054C50.8932 61.0779 50.4432 58.102 49.615 55.2366C49.5531 55.0232 49.5519 54.7924 49.4762 54.2191C51.2764 54.963 52.8783 55.537 54.4003 56.2729C57.1699 57.6125 59.6669 59.3635 61.6776 61.7015C65.2879 65.8984 63.6603 71.3773 57.8874 73.0284C61.3995 74.8402 65.0816 74.6298 68.213 72.5314C71.6733 70.2126 72.1852 66.818 71.2932 63.1689C73.5565 62.8816 75.6729 62.6886 77.7605 62.3306C81.0957 61.7585 83.4996 59.6973 85.4166 57.1012C88.4906 52.939 91.372 48.6353 94.4753 44.4955C95.9392 42.5428 98.0199 41.2479 100.348 40.4121C100.746 40.2694 101.153 40.1496 101.67 39.9821C99.4025 38.4594 98.8175 36.2617 98.7025 33.8368C98.4768 29.0703 99.495 24.6152 102.547 20.8706C106.267 16.3063 110.726 13.0351 116.997 12.5145C122.965 12.0188 127.792 13.9571 131.796 18.1311C134.138 20.5715 135.529 23.6131 136.074 26.9246C136.356 28.6427 136.387 30.4831 136.098 32.1956C135.373 36.5024 131.543 39.5223 127.114 39.4913C125.712 39.4813 124.303 39.3845 122.91 39.2238C119.182 38.7945 116.278 34.1303 117.549 30.6866C118.247 28.7966 119.598 27.7164 121.49 27.2305C122.681 26.9246 123.89 26.6857 125.179 26.3972C121.549 23.404 114.591 23.6001 110.74 28.5546C107.831 32.2974 108.444 39.6085 114.673 42.7333C112.693 43.4301 110.793 44.112 108.883 44.7691C104.223 46.3724 100.328 52.0343 100.468 56.647C100.506 57.9041 100.474 59.1637 100.474 60.6026C102.881 58.6592 104.918 56.8834 107.091 55.2906C110.753 52.607 115.069 51.3518 119.343 50.0364C123.143 48.8674 127.082 48.0198 130.716 46.4661C136.427 44.0233 140.056 39.4925 142.005 33.6376C142.228 32.9656 142.503 32.311 142.75 31.6626C143.788 32.2788 144.737 33.0451 145.823 33.444C148.065 34.268 149.878 32.8751 149.985 30.5563C150.185 26.2073 148.352 22.6253 145.732 19.3889C143.954 17.193 141.946 15.1814 140.121 13.176C146.03 11.4851 149.149 4.94773 147.537 0.78305C144.569 4.95704 140.221 6.42696 135.378 7.04186C130.859 7.61519 126.599 6.50204 122.286 5.44846C117.843 4.36262 113.333 3.76571 108.786 4.97503C106.332 5.62778 104.565 7.21063 102.975 9.34137C101.473 3.13902 96.6911 1.74108 91.4551 1.05482C92.4352 2.88339 93.5615 4.54318 94.2447 6.36678C95.211 8.94488 95.0748 11.5633 94.0828 14.2258C92.6727 18.0108 91.4626 21.8838 92.0646 26.5139C90.4701 25.6514 89.1444 25.0657 87.9637 24.2683C85.3491 22.5031 82.599 21.0803 79.4788 20.4555C74.5753 19.4739 69.9088 19.9119 65.636 22.7407C61.7233 25.3312 57.5536 27.4936 52.9027 28.2413C48.4762 28.953 44.3572 28.0713 40.6544 25.1078C36.8223 22.0414 36.3992 15.3501 39.2475 11.5577C41.6376 8.37466 48.5887 6.98354 51.3707 10.4949C53.0377 12.5989 53.3671 14.9108 51.5139 16.2126C50.6332 16.8312 49.3937 16.9826 48.2918 17.2395C47.7343 17.3692 47.1211 17.2625 46.3992 17.2625C47.1586 19.7469 48.7606 21.3775 51.1626 21.8379C54.0828 22.3976 57.0455 21.9552 59.0168 19.5539C60.897 17.2643 61.7689 15.638 59.2762 9.88988C61.6326 10.3087 63.9928 10.6692 66.3242 11.1619C68.1287 11.5428 69.83 11.4876 71.592 10.8696C74.7535 9.76082 77.968 8.79969 81.2432 7.75107C79.2037 4.92043 76.4767 3.03851 73.0477 2.37397C68.9381 1.57727 64.8391 2.0085 60.7982 3.01989C59.4025 3.36922 58.0212 3.81225 56.6048 4.02693C56.0117 4.1169 55.2535 3.86561 54.7241 3.52931C50.5313 0.866194 45.9354 0.465362 41.1645 1.07778C35.3447 1.82422 32.0189 5.31258 30.5307 10.7722C30.485 10.9391 30.33 11.0762 30.4619 10.8845C28.7593 9.06712 27.0661 7.12749 25.2272 5.33553C23.5934 3.74275 21.3938 3.44058 19.2237 3.22651C16.9098 2.99817 14.5778 2.91751 12.2789 2.5961C10.665 2.37025 9.31746 1.5357 8.54616 0C8.44803 0 8.3499 0 8.25177 0C8.17427 2.9839 9.69936 5.17669 12.0645 6.67578C14.534 8.24126 17.243 9.42886 19.8087 10.851C22.6521 12.4277 24.9516 14.5559 26.516 17.4567C27.923 20.0658 29.2887 22.7239 30.982 25.1476C33.3146 28.4845 35.8623 31.7247 40.6501 32.0318C40.215 32.4438 39.9238 32.7621 39.5894 33.0277C38.5106 33.8858 38.0493 35.0126 38.3612 36.3206C38.6599 37.5758 39.5475 38.465 40.8545 38.5854C42.0627 38.697 43.3921 38.7945 44.5028 38.4172C48.0387 37.2166 51.5039 35.8099 54.9816 34.4449C56.3492 33.9082 57.678 33.2722 59.2231 32.5946C59.2231 34.1768 59.1381 35.5115 59.2412 36.8313C59.4456 39.4509 60.07 41.9782 62.0395 43.8768C64.3222 46.0765 66.9786 46.9811 70.3001 46.5939C75.1535 46.0287 79.6156 40.7577 77.1149 35.1708C76.8417 35.6083 76.5873 35.9837 76.3654 36.3777C74.9835 38.8311 72.7002 39.1481 70.215 38.8937C67.7374 38.6406 66.6523 37.0298 66.4217 34.7514C66.3467 34.0124 66.4236 33.2213 66.6098 32.5003C67.3161 29.7671 68.7212 27.6984 71.6839 26.8471C73.4728 26.3333 75.1797 26.3625 76.9617 26.6181C80.0057 27.0537 82.6952 28.178 84.2803 30.9019C85.3185 32.6852 86.1767 34.6329 86.7448 36.6122C87.6893 39.9008 87.5074 43.2489 85.7067 46.2297C82.5033 51.533 77.7686 54.5684 71.4526 54.6826C67.8655 54.7477 64.3922 54.0639 61.1001 52.4389C56.8748 50.3528 52.6064 48.3257 48.243 46.5493C43.3621 44.5625 38.2868 43.2092 32.9277 43.3023C31.3363 43.3296 29.7437 43.3066 28.2543 43.3066C31.0726 36.7891 29.2237 31.1067 23.9959 26.4208C22.0976 24.7188 19.6419 23.633 17.453 22.2462C16.8479 21.8627 16.141 21.5165 15.7335 20.9686C13.2771 17.6633 10.9688 14.2475 8.45991 10.9832C6.82543 8.85678 4.58466 7.47124 2.31264 6.80112C2.99581 8.98956 4.09838 11.2289 4.32902 13.5532C4.71092 17.3952 5.31846 21.035 8.07176 24.1262C4.29402 25.5763 1.25133 27.6599 0 31.6024C0.00187512 33.0624 0.00187528 34.5255 0.00187528 35.9886Z" fill="#202020"/>
</svg>
