<svg width="375" height="52" viewBox="0 0 375 52" fill="none" xmlns="http://www.w3.org/2000/svg">
<path d="M175.226 0.000469208C176.32 0.220081 177.438 0.363777 178.506 0.675652C180.714 1.32103 182.531 2.56851 184.017 4.35182C185.19 5.75982 186.189 7.25097 186.742 8.99632C187.049 9.96558 187.331 10.9694 187.424 11.9762C187.866 16.7466 186.363 20.886 183.204 24.455C183.044 24.6357 182.931 24.8582 182.772 25.0408C181.897 26.0504 181.937 26.0096 182.827 26.9971C185.128 29.5474 186.787 32.4172 187.298 35.8915C188.098 41.3323 186.359 45.8148 182.204 49.3233C180.581 50.6943 178.599 51.4233 176.435 51.6583C172.958 52.036 169.551 51.6309 166.144 51.0018C162.669 50.3603 159.17 49.8409 155.707 49.1469C153.106 48.626 150.482 48.5059 147.881 48.7217C145.502 48.9187 143.144 49.4655 140.803 49.9773C139.367 50.2916 137.98 50.8298 136.487 51.2936C136.99 49.4516 137.736 47.7586 139.041 46.3833C140.431 44.9196 142.126 43.9494 144.157 43.6524C144.853 43.5505 145.556 43.3905 146.252 43.4097C148.818 43.4799 151.39 43.5327 153.945 43.7542C155.458 43.8854 156.946 44.3198 158.445 44.6183C158.359 44.7173 158.273 44.8163 158.187 44.9153C157.649 44.2175 157.163 43.4707 156.563 42.8316C155.012 41.1804 154.041 39.3308 154.242 36.9901C154.284 36.5062 154.325 36.2505 154.957 36.2774C158.207 36.4163 160.408 38.1203 161.975 40.8229C162.164 41.1487 162.321 41.4928 162.498 41.8253C162.52 41.8667 162.573 41.8921 162.593 41.9085C162.834 40.7196 163.021 39.5048 163.334 38.3231C163.861 36.3274 165.142 34.8656 166.778 33.6541C168.101 32.6738 169.605 32.0207 171.191 32.0539C174.555 32.1245 176.678 33.2663 177.783 36.7979C178.408 38.7921 177.67 41.5236 176.13 42.2006C175.425 42.5106 174.597 42.5409 173.763 42.711C173.821 41.8859 173.904 41.2958 173.897 40.7066C173.881 39.3448 172.95 37.5908 171.278 37.376C170.4 37.263 169.695 37.6441 169.112 38.2116C166.638 40.6182 167.129 44.5625 170.026 46.2243C174.024 48.5184 178.627 47.4054 181.31 43.9162C183.544 41.0113 184.143 37.1664 182.176 33.6411C180.297 30.272 177.407 28.5344 173.678 28.0557C172.278 27.876 170.842 27.6314 169.456 27.7641C167.427 27.9587 165.412 28.3969 163.419 28.8554C159.616 29.7304 156.062 31.2865 152.572 33.0011C147.037 35.7205 141.482 38.4005 135.962 41.1487C132.404 42.9195 128.92 44.8403 125.351 46.5866C122.251 48.1032 119.111 49.552 115.919 50.862C114.599 51.4041 113.104 51.5434 111.676 51.7981C109.079 52.2614 106.536 51.8798 104.044 51.1369C102.016 50.5319 100.136 49.6587 98.5158 48.2113C96.1721 46.1171 94.7845 43.514 94.024 40.524C93.9576 40.2631 93.9889 39.9786 93.9398 39.7119C93.8917 39.4524 93.7985 39.2016 93.7019 38.8657C93.3307 41.623 92.4321 44.1123 90.7903 46.2747C89.2528 48.2993 87.2533 49.7428 84.8633 50.6501C82.2955 51.6251 79.6426 52.123 76.9047 51.9553C74.6085 51.8145 72.3695 51.356 70.2647 50.3469C65.5642 48.0936 60.8205 45.9278 56.1483 43.6173C50.6214 40.8844 45.1877 37.9622 39.6449 35.2625C35.2612 33.127 30.929 30.8328 26.2217 29.4479C23.8227 28.742 21.4188 28.0682 18.8881 27.8462C15.8784 27.5824 12.9808 27.8563 10.2231 29.05C7.01301 30.4393 4.96012 32.9131 4.31781 36.3437C3.37646 41.3746 6.34907 46.1464 11.5356 47.2723C13.9029 47.786 16.3847 47.3651 18.2693 45.6375C20.8871 43.2377 20.3333 39.4514 17.6337 37.6998C16.1977 36.7681 14.5582 37.6148 13.9428 39.2251C13.5659 40.2112 13.6111 41.3583 13.4553 42.5217C11.3337 43.0546 10.051 41.6283 9.59091 39.5341C8.84715 36.1486 11.4313 32.4638 15.0337 32.1442C18.1986 31.8636 20.5443 33.1337 22.5333 35.4326C23.9092 37.0228 24.5083 38.8642 24.6179 40.9181C24.6357 41.2549 24.7573 41.586 24.7987 41.7739C25.5799 40.7398 26.3472 39.5644 27.2751 38.5331C28.7126 36.9353 30.6126 36.289 32.7362 36.3082C32.8905 36.3096 33.1545 36.6321 33.1775 36.8277C33.4352 39.0156 32.6775 40.8638 31.2285 42.476C30.5347 43.2478 29.8737 44.0488 29.4862 44.501C30.6222 44.2958 32.2631 43.9743 33.9131 43.7105C34.8747 43.5572 35.8526 43.3948 36.8199 43.4145C39.0833 43.4602 41.354 43.5193 43.6031 43.7538C45.2415 43.9244 46.6238 44.7682 47.8699 45.8922C49.4959 47.3588 50.3382 49.2152 50.9685 51.233C48.8194 50.6208 46.7266 49.9523 44.5973 49.4343C41.3406 48.6419 37.9978 48.4353 34.6828 48.7245C32.0074 48.9581 29.3713 49.6318 26.715 50.0951C24.3227 50.5122 21.9381 50.9975 19.5299 51.2897C17.2097 51.5713 14.865 51.7703 12.5303 51.7779C9.35533 51.7885 6.58128 50.6837 4.25627 48.4194C2.20962 46.4261 0.950004 44.0397 0.20577 41.3328C0.123558 41.0339 0.0682693 40.7278 0.000480507 40.4245C0.000480507 38.9944 0.000480507 37.5648 0.000480507 36.1347C0.28702 35.115 0.496637 34.0659 0.874523 33.0808C1.83318 30.582 3.25578 28.3662 5.13079 26.4401C5.28608 26.2806 5.35147 25.8299 5.23945 25.654C4.93656 25.1782 4.50242 24.7885 4.14281 24.3459C2.93319 22.8557 1.79472 21.3127 1.15914 19.479C0.725004 18.2276 0.383175 16.9445 0 15.6754C0 14.3006 0 12.9257 0 11.5509C0.0427886 11.5206 0.119712 11.4937 0.123078 11.4601C0.289905 9.62679 0.978369 7.97033 1.91876 6.422C3.738 3.42676 6.18753 1.22779 9.73225 0.487263C10.5597 0.314266 11.3914 0.162403 12.2212 0.000938416C12.827 0.000938416 13.4323 0.000938416 14.038 0.000938416C14.315 0.0562019 14.59 0.141262 14.8698 0.160965C15.9852 0.238335 17.1111 0.230186 18.2169 0.375309C19.7669 0.578583 21.3035 0.884678 22.8438 1.15667C25.4727 1.62088 28.0944 2.13171 30.7309 2.54786C32.7069 2.85973 34.6968 3.10864 36.6901 3.27683C37.6588 3.35853 38.6478 3.15958 39.6285 3.1418C42.2771 3.09374 44.8199 2.46856 47.3449 1.75735C48.5685 1.4128 49.7675 0.98127 51.0613 0.562233C50.8132 1.18935 50.5824 1.72804 50.3853 2.27922C49.5723 4.55029 48.0877 6.26728 45.9747 7.38503C44.5507 8.13853 42.9795 8.33797 41.3574 8.46339C38.6454 8.67339 35.9708 8.58881 33.3021 8.13181C31.9146 7.89442 30.5372 7.59502 29.1795 7.32784C29.9102 8.0996 30.6655 8.87042 31.3905 9.66957C32.753 11.1713 33.4001 12.9238 33.1987 14.9657C33.1521 15.44 32.9934 15.7235 32.4458 15.6788C31.1102 15.5697 29.8492 15.2271 28.6891 14.549C26.8357 13.4659 25.7232 11.7657 24.8386 9.84977C24.6684 10.9478 24.5799 12.0242 24.3232 13.0593C23.8809 14.8426 22.8847 16.3006 21.516 17.5395C19.4241 19.4328 17.0443 20.1954 14.2529 19.6303C10.8222 18.9355 8.66735 14.9508 9.74283 11.8109C10.2909 10.2111 11.6582 9.1203 13.0005 9.24044C13.4606 9.28176 13.8515 9.42015 13.6703 9.98431C13.3698 10.9204 13.4948 11.8373 13.8972 12.6691C14.7015 14.3342 16.2203 15.1151 17.7371 14.1478C19.7914 12.8373 20.7486 9.73251 19.1876 7.37591C17.8333 5.33167 15.7376 4.61229 13.4703 4.48495C10.2645 4.30522 7.66878 5.81414 5.90099 8.31826C4.40819 10.4322 3.68848 12.956 4.29329 15.6466C5.0606 19.0594 7.11109 21.4963 10.2496 22.8908C12.764 24.0081 15.4563 24.3157 18.2477 24.1302C20.9515 23.9509 23.5174 23.2599 26.0756 22.5146C30.4179 21.2488 34.4516 19.2142 38.4833 17.2175C44.4949 14.24 50.4339 11.116 56.4305 8.10779C59.957 6.3389 63.5272 4.65601 67.0955 2.97121C68.6777 2.22396 70.2767 1.4964 71.9176 0.895718C73.0594 0.477642 74.2864 0.290722 75.4753 0.000469208C77.1268 0.000469208 78.7782 0.000469208 80.4297 0.000469208C81.3287 0.221043 82.2326 0.423355 83.1258 0.666031C86.4172 1.55985 89.1638 3.23889 91.111 6.11929C92.5268 8.21399 93.3634 10.512 93.7264 13.0963C94.0831 11.1391 94.5134 9.3279 95.4317 7.64358C97.1326 4.52531 99.5096 2.22012 102.952 1.14417C104.296 0.724174 105.662 0.37915 107.019 0C108.67 0 110.322 0 111.973 0C113.056 0.269108 114.196 0.403164 115.21 0.832775C118.784 2.34602 122.353 3.88184 125.852 5.55943C129.361 7.24183 132.766 9.1371 136.247 10.8805C141.473 13.4971 146.722 16.0656 151.965 18.6481C155.791 20.5323 159.704 22.1854 163.864 23.2046C167.007 23.9745 170.136 24.4872 173.409 23.9586C176.448 23.468 179.077 22.332 181.066 19.9648C182.279 18.5207 183.157 16.8383 183.294 14.9349C183.513 11.8998 182.675 9.17987 180.379 7.05346C177.744 4.61228 174.792 3.83573 171.273 5.07073C167.913 6.24999 166.111 10.1362 168.783 13.3251C169.854 14.6024 171.208 15.0007 172.472 14.03C173.706 13.0834 174.061 11.7354 173.885 10.2481C173.781 9.36826 173.882 9.12654 174.728 9.26927C175.36 9.37595 176.076 9.6018 176.533 10.018C177.823 11.1953 178.172 12.7398 177.874 14.4438C177.299 17.7293 175.151 19.4444 172.39 19.7798C168.793 20.2161 165.703 18.0705 163.981 15.1324C163.03 13.5091 162.865 11.6946 162.656 9.92521C162.107 10.8137 161.635 11.759 160.997 12.5759C159.503 14.4914 157.479 15.4899 155.062 15.649C154.808 15.6658 154.298 15.3386 154.305 15.1915C154.363 14.092 154.329 12.9301 154.687 11.9161C155.372 9.97998 156.882 8.60754 158.55 7.26874C158.319 7.2846 158.212 7.27306 158.116 7.30141C155.43 8.09768 152.677 8.47971 149.888 8.56285C148.525 8.60369 147.157 8.45042 145.791 8.41822C142.632 8.34373 140.072 7.10199 138.229 4.51569C137.42 3.38015 136.835 2.12592 136.578 0.587692C137.039 0.748192 137.378 0.888046 137.73 0.985115C139.75 1.54303 141.755 2.16917 143.8 2.61512C145.247 2.93132 146.745 3.05146 148.229 3.16294C149.59 3.2653 150.97 3.35371 152.324 3.23838C153.931 3.10143 155.521 2.7492 157.115 2.47433C159.719 2.02502 162.314 1.51228 164.927 1.12112C167.468 0.740528 170.026 0.481022 172.576 0.162903C172.857 0.127823 173.132 0.0552521 173.41 0.000469208C174.015 0.000469208 174.62 0.000469208 175.226 0.000469208ZM78.9119 18.5443C79.0119 18.2338 79.11 17.9326 79.2066 17.6303C80.0513 14.982 78.3335 12.8484 75.9148 12.9065C73.3744 12.968 71.7445 15.0656 71.7215 17.2545C71.6945 19.7807 73.0902 21.6914 75.2547 22.8841C77.1301 23.9178 79.234 24.0523 81.3696 23.9447C83.7629 23.8241 85.6951 22.849 87.2835 21.1167C88.6311 19.6467 89.6057 17.9619 89.66 15.934C89.7566 12.3174 88.6095 9.21304 85.723 6.84058C83.8792 5.32541 81.7638 4.48926 79.4407 4.31915C76.5239 4.10578 73.7138 4.76847 71.1167 6.08564C64.8484 9.26446 58.6325 12.5471 52.3671 15.7326C48.9464 17.4717 45.5127 19.1988 42.0031 20.7461C38.5079 22.2873 34.9127 23.602 31.3573 25.0057C30.529 25.333 29.6843 25.6189 28.7573 25.9562C29.8472 26.3551 30.8203 26.6723 31.7631 27.0625C36.6655 29.0894 41.6257 30.9929 46.4372 33.2168C50.5041 35.0967 54.3796 37.3851 58.3685 39.437C62.3883 41.5043 66.4407 43.5077 70.4835 45.5299C73.4816 47.0297 76.6263 47.9019 80.0071 47.5049C82.2552 47.2411 84.2629 46.3636 85.9845 44.859C88.0374 43.0647 89.1066 40.7984 89.5451 38.1242C90.148 34.4499 88.6523 31.6925 85.8792 29.5637C83.6254 27.8337 80.9696 27.6151 78.2085 28.0706C75.383 28.5368 73.3758 29.9227 72.1133 32.5748C70.9638 34.99 72.5018 38.0362 74.4547 38.6787C75.8672 39.1429 77.2181 39.1333 78.3393 38.1011C79.3104 37.2068 79.6989 36.0463 79.2777 34.7104C79.1494 34.3029 79.0523 33.8853 78.9422 33.4768C80.4556 32.804 81.8456 33.0885 82.9095 34.2375C83.7542 35.1496 83.8629 36.3649 83.8234 37.4226C83.7533 39.3073 82.9542 41.0411 81.3614 42.1675C78.2124 44.3948 73.2167 44.5164 70.0195 41.3285C68.0561 39.3707 67.0455 37.0684 67.3772 34.2567C67.4416 33.7103 67.4681 33.1596 67.521 32.5056C65.2839 34.3557 62.9238 35.6056 60.0483 35.2692C60.0022 32.2259 61.6267 30.0582 63.8008 28.0932C62.5003 28.1965 61.3681 28.3205 60.2325 28.37C57.2498 28.5003 54.2666 28.654 51.2824 28.6944C47.7218 28.7429 44.3968 27.8203 41.2891 25.976C41.6766 25.7241 42.0261 25.4738 42.3987 25.2638C42.63 25.1335 42.9036 25.0797 43.1459 24.9653C47.1617 23.0677 51.4209 22.9826 55.7305 23.2719C58.1209 23.4324 60.5113 23.5987 62.9022 23.7544C63.0964 23.7669 63.295 23.7169 63.5984 23.6847C61.4983 21.7351 60.0839 19.5693 60.0243 16.7182C61.3998 16.5226 62.7661 16.6332 64.008 17.23C65.2354 17.8196 66.3743 18.5923 67.5301 19.2714C67.5301 19.2214 67.5344 19.0859 67.5296 18.9503C67.4849 17.6932 67.2133 16.3938 67.4383 15.1867C67.9489 12.4476 69.6796 10.5009 72.0623 9.1227C74.1878 7.89347 76.4489 7.86799 78.7431 8.48597C80.1177 8.85648 81.4109 9.46917 82.3282 10.5936C83.5167 12.0507 84.0018 13.7595 83.7201 15.6336C83.5427 16.8158 83.1109 17.8917 81.9696 18.4909C80.9941 19.0051 79.983 18.8216 78.9119 18.5443ZM108.529 33.4696C108.428 33.7699 108.317 34.0693 108.227 34.3749C107.638 36.3673 108.472 38.2342 110.275 38.7652C113.057 39.585 115.55 37.7248 115.726 34.7108C115.883 32.0284 114.265 30.1168 112.027 28.9448C109.851 27.8054 107.397 27.568 104.979 28.073C101.883 28.7203 99.7264 30.6132 98.4192 33.4845C97.7081 35.0463 97.6091 36.6609 97.9312 38.326C98.3148 40.3087 98.9552 42.192 100.332 43.7115C102.815 46.452 105.87 47.774 109.64 47.552C111.818 47.4237 113.902 46.9797 115.811 46.045C121.517 43.2497 127.15 40.302 132.828 37.449C137.557 35.0732 142.255 32.6219 147.073 30.4393C150.815 28.7439 154.721 27.4099 158.558 25.9139C157.996 25.703 157.381 25.4531 156.755 25.2393C151.573 23.4718 146.508 21.4093 141.612 18.9701C136.436 16.3914 131.347 13.6413 126.203 10.9983C122.976 9.3399 119.73 7.71758 116.472 6.12313C114.397 5.10773 112.185 4.44746 109.883 4.31387C106.113 4.0957 102.877 5.2908 100.34 8.21637C98.7644 10.0338 98.0403 12.1799 97.7894 14.4842C97.385 18.2007 99.8264 21.6635 102.774 23.1071C105.373 24.3801 108.041 24.1201 110.744 23.4665C113.49 22.8019 115.34 20.2757 115.754 17.8686C116.051 16.1483 114.465 13.425 112.204 12.9839C109.696 12.4947 107.451 14.8292 108.146 16.9446C108.317 17.4659 108.369 18.0267 108.474 18.5577C108.143 18.6385 107.858 18.713 107.571 18.7778C106.242 19.0763 104.81 18.4165 104.222 17.1988C103.108 14.8897 103.549 11.9839 105.506 10.2327C107.779 8.19956 110.557 7.69354 113.539 8.38889C115.448 8.83388 116.941 9.9449 118.157 11.401C119.705 13.2549 120.46 15.3943 120.077 17.8504C120 18.3482 119.971 18.8538 119.909 19.4559C122.133 17.6005 124.483 16.317 127.474 16.7221C127.394 18.0709 127.146 19.3569 126.402 20.4756C125.66 21.589 124.837 22.6481 123.987 23.8178C124.667 23.7424 125.33 23.6395 125.997 23.6006C129.047 23.4233 132.097 23.1792 135.149 23.1321C136.791 23.1066 138.453 23.3454 140.081 23.6169C142.242 23.9778 144.273 24.7496 146.153 25.9548C145.691 26.2282 145.293 26.5118 144.857 26.7155C141.628 28.2264 138.233 28.903 134.665 28.7117C132.265 28.5829 129.863 28.4983 127.462 28.3734C126.239 28.31 125.017 28.2009 123.631 28.1009C125.871 30.0664 127.428 32.2548 127.463 35.2524C126.019 35.4389 124.678 35.2851 123.438 34.6561C122.234 34.0453 121.074 33.347 120.064 32.7829C120.064 33.7714 120.102 34.9194 120.056 36.0631C119.978 37.9617 119.114 39.5399 117.847 40.8902C115.573 43.3145 112.8 44.1416 109.501 43.5822C106.136 43.0118 103.299 40.3501 103.707 36.4845C103.993 33.7848 105.829 32.4979 108.529 33.4696ZM93.7153 17.6803C93.0052 21.2075 91.1864 23.9682 88.2047 25.9615C91.3163 27.9515 92.997 30.8155 93.7345 34.3096C94.1706 31.6541 95.8514 28.1062 99.2177 25.9567C96.2321 23.9548 94.4821 21.1417 93.7153 17.6803Z" fill="#202020"/>
<path d="M362.726 0.000469208C363.82 0.220081 364.938 0.363777 366.005 0.675652C368.214 1.32103 370.03 2.56851 371.516 4.35182C372.69 5.75982 373.689 7.25097 374.242 8.99632C374.549 9.96558 374.831 10.9694 374.924 11.9762C375.366 16.7466 373.863 20.886 370.704 24.455C370.544 24.6357 370.43 24.8582 370.272 25.0408C369.397 26.0504 369.437 26.0096 370.327 26.9971C372.627 29.5474 374.287 32.4172 374.798 35.8915C375.598 41.3323 373.859 45.8148 369.704 49.3233C368.08 50.6943 366.099 51.4233 363.935 51.6583C360.458 52.036 357.051 51.6309 353.643 51.0018C350.169 50.3603 346.67 49.8409 343.207 49.1469C340.606 48.626 337.982 48.5059 335.381 48.7217C333.002 48.9187 330.644 49.4655 328.303 49.9773C326.867 50.2916 325.48 50.8298 323.986 51.2936C324.49 49.4516 325.235 47.7586 326.541 46.3833C327.931 44.9196 329.626 43.9494 331.657 43.6524C332.353 43.5505 333.056 43.3905 333.751 43.4097C336.318 43.4799 338.889 43.5327 341.445 43.7542C342.958 43.8854 344.446 44.3198 345.945 44.6183C345.859 44.7173 345.773 44.8163 345.687 44.9153C345.149 44.2175 344.663 43.4707 344.062 42.8316C342.511 41.1804 341.541 39.3308 341.742 36.9901C341.784 36.5062 341.824 36.2505 342.457 36.2774C345.707 36.4163 347.908 38.1203 349.475 40.8229C349.663 41.1487 349.821 41.4928 349.998 41.8253C350.02 41.8667 350.073 41.8921 350.092 41.9085C350.334 40.7196 350.521 39.5048 350.834 38.3231C351.361 36.3274 352.642 34.8656 354.277 33.6541C355.601 32.6738 357.104 32.0207 358.69 32.0539C362.054 32.1245 364.178 33.2663 365.283 36.7979C365.907 38.7921 365.169 41.5236 363.63 42.2006C362.925 42.5106 362.097 42.5409 361.263 42.711C361.321 41.8859 361.403 41.2958 361.397 40.7066C361.38 39.3448 360.45 37.5908 358.778 37.376C357.9 37.263 357.195 37.6441 356.612 38.2116C354.138 40.6182 354.629 44.5625 357.525 46.2243C361.524 48.5184 366.127 47.4054 368.81 43.9162C371.043 41.0113 371.642 37.1664 369.676 33.6411C367.797 30.272 364.907 28.5344 361.177 28.0557C359.777 27.876 358.342 27.6314 356.956 27.7641C354.926 27.9587 352.912 28.3969 350.919 28.8554C347.116 29.7304 343.561 31.2865 340.072 33.0011C334.536 35.7205 328.982 38.4005 323.461 41.1487C319.904 42.9195 316.42 44.8403 312.851 46.5866C309.751 48.1032 306.611 49.552 303.419 50.862C302.098 51.4041 300.604 51.5434 299.176 51.7981C296.579 52.2614 294.035 51.8798 291.544 51.1369C289.516 50.5319 287.635 49.6587 286.016 48.2113C283.672 46.1171 282.284 43.514 281.524 40.524C281.457 40.2631 281.489 39.9786 281.44 39.7119C281.392 39.4524 281.298 39.2016 281.202 38.8657C280.83 41.623 279.932 44.1123 278.29 46.2747C276.753 48.2993 274.753 49.7428 272.363 50.6501C269.795 51.6251 267.142 52.123 264.404 51.9553C262.108 51.8145 259.869 51.356 257.764 50.3469C253.064 48.0936 248.32 45.9278 243.648 43.6173C238.121 40.8844 232.687 37.9622 227.145 35.2625C222.761 33.127 218.429 30.8328 213.721 29.4479C211.322 28.742 208.919 28.0682 206.388 27.8462C203.378 27.5824 200.481 27.8563 197.723 29.05C194.513 30.4393 192.46 32.9131 191.818 36.3437C190.876 41.3746 193.849 46.1464 199.035 47.2723C201.403 47.786 203.884 47.3651 205.769 45.6375C208.387 43.2377 207.833 39.4514 205.133 37.6998C203.697 36.7681 202.058 37.6148 201.443 39.2251C201.066 40.2112 201.111 41.3583 200.955 42.5217C198.833 43.0546 197.551 41.6283 197.091 39.5341C196.347 36.1486 198.931 32.4638 202.533 32.1442C205.698 31.8636 208.044 33.1337 210.033 35.4326C211.409 37.0228 212.008 38.8642 212.117 40.9181C212.135 41.2549 212.257 41.586 212.298 41.7739C213.079 40.7398 213.846 39.5644 214.774 38.5331C216.212 36.9353 218.112 36.289 220.235 36.3082C220.39 36.3096 220.654 36.6321 220.677 36.8277C220.935 39.0156 220.177 40.8638 218.728 42.476C218.034 43.2478 217.373 44.0488 216.985 44.501C218.122 44.2958 219.762 43.9743 221.412 43.7105C222.374 43.5572 223.352 43.3948 224.319 43.4145C226.583 43.4602 228.853 43.5193 231.102 43.7538C232.741 43.9244 234.123 44.7682 235.369 45.8922C236.995 47.3588 237.837 49.2152 238.468 51.233C236.319 50.6208 234.226 49.9523 232.097 49.4343C228.84 48.6419 225.497 48.4353 222.182 48.7245C219.507 48.9581 216.871 49.6318 214.214 50.0951C211.822 50.5122 209.437 50.9975 207.029 51.2897C204.709 51.5713 202.364 51.7703 200.03 51.7779C196.855 51.7885 194.081 50.6837 191.756 48.4194C189.709 46.4261 188.449 44.0397 187.705 41.3328C187.623 41.0339 187.568 40.7278 187.5 40.4245C187.5 38.9944 187.5 37.5648 187.5 36.1347C187.786 35.115 187.996 34.0659 188.374 33.0808C189.332 30.582 190.755 28.3662 192.63 26.4401C192.785 26.2806 192.851 25.8299 192.739 25.654C192.436 25.1782 192.002 24.7885 191.642 24.3459C190.432 22.8557 189.294 21.3127 188.658 19.479C188.224 18.2276 187.882 16.9445 187.499 15.6754C187.499 14.3006 187.499 12.9257 187.499 11.5509C187.542 11.5206 187.619 11.4937 187.622 11.4601C187.789 9.62679 188.478 7.97033 189.418 6.422C191.237 3.42676 193.687 1.22779 197.232 0.487263C198.059 0.314266 198.891 0.162403 199.72 0.000938416C200.326 0.000938416 200.932 0.000938416 201.537 0.000938416C201.814 0.0562019 202.089 0.141262 202.369 0.160965C203.484 0.238335 204.61 0.230186 205.716 0.375309C207.266 0.578583 208.803 0.884678 210.343 1.15667C212.972 1.62088 215.594 2.13171 218.23 2.54786C220.206 2.85973 222.196 3.10864 224.189 3.27683C225.158 3.35853 226.147 3.15958 227.128 3.1418C229.776 3.09374 232.319 2.46856 234.844 1.75735C236.068 1.4128 237.267 0.98127 238.561 0.562233C238.312 1.18935 238.082 1.72804 237.885 2.27922C237.072 4.55029 235.587 6.26728 233.474 7.38503C232.05 8.13853 230.479 8.33797 228.857 8.46339C226.145 8.67339 223.47 8.58881 220.801 8.13181C219.414 7.89442 218.036 7.59502 216.679 7.32784C217.409 8.0996 218.165 8.87042 218.89 9.66957C220.252 11.1713 220.899 12.9238 220.698 14.9657C220.651 15.44 220.493 15.7235 219.945 15.6788C218.61 15.5697 217.348 15.2271 216.188 14.549C214.335 13.4659 213.222 11.7657 212.338 9.84977C212.168 10.9478 212.079 12.0242 211.822 13.0593C211.38 14.8426 210.384 16.3006 209.015 17.5395C206.923 19.4328 204.544 20.1954 201.752 19.6303C198.321 18.9355 196.167 14.9508 197.242 11.8109C197.79 10.2111 199.157 9.1203 200.5 9.24044C200.96 9.28176 201.351 9.42015 201.17 9.98431C200.869 10.9204 200.994 11.8373 201.396 12.6691C202.201 14.3342 203.72 15.1151 205.236 14.1478C207.291 12.8373 208.248 9.73251 206.687 7.37591C205.333 5.33167 203.237 4.61229 200.97 4.48495C197.764 4.30522 195.168 5.81414 193.4 8.31826C191.907 10.4322 191.188 12.956 191.793 15.6466C192.56 19.0594 194.61 21.4963 197.749 22.8908C200.263 24.0081 202.956 24.3157 205.747 24.1302C208.451 23.9509 211.017 23.2599 213.575 22.5146C217.917 21.2488 221.951 19.2142 225.983 17.2175C231.994 14.24 237.933 11.116 243.93 8.10779C247.456 6.3389 251.026 4.65601 254.595 2.97121C256.177 2.22396 257.776 1.4964 259.417 0.895718C260.559 0.477642 261.786 0.290722 262.975 0.000469208C264.626 0.000469208 266.278 0.000469208 267.929 0.000469208C268.828 0.221043 269.732 0.423355 270.625 0.666031C273.916 1.55985 276.663 3.23889 278.61 6.11929C280.026 8.21399 280.863 10.512 281.226 13.0963C281.582 11.1391 282.013 9.3279 282.931 7.64358C284.632 4.52531 287.009 2.22012 290.452 1.14417C291.795 0.724174 293.162 0.37915 294.518 0C296.169 0 297.821 0 299.472 0C300.555 0.269108 301.695 0.403164 302.709 0.832775C306.283 2.34602 309.852 3.88184 313.351 5.55943C316.86 7.24183 320.266 9.1371 323.746 10.8805C328.972 13.4971 334.222 16.0656 339.464 18.6481C343.29 20.5323 347.203 22.1854 351.363 23.2046C354.506 23.9745 357.636 24.4872 360.908 23.9586C363.947 23.468 366.576 22.332 368.565 19.9648C369.778 18.5207 370.656 16.8383 370.793 14.9349C371.013 11.8998 370.175 9.17987 367.878 7.05346C365.243 4.61228 362.291 3.83573 358.773 5.07073C355.413 6.24999 353.61 10.1362 356.282 13.3251C357.352 14.6024 358.707 15.0007 359.971 14.03C361.204 13.0834 361.56 11.7354 361.384 10.2481C361.279 9.36826 361.381 9.12654 362.226 9.26927C362.859 9.37595 363.575 9.6018 364.032 10.018C365.322 11.1953 365.671 12.7398 365.373 14.4438C364.798 17.7293 362.65 19.4444 359.888 19.7798C356.292 20.2161 353.202 18.0705 351.48 15.1324C350.529 13.5091 350.363 11.6946 350.155 9.92521C349.606 10.8137 349.134 11.759 348.496 12.5759C347.002 14.4914 344.977 15.4899 342.561 15.649C342.307 15.6658 341.797 15.3386 341.804 15.1915C341.861 14.092 341.827 12.9301 342.186 11.9161C342.871 9.97998 344.381 8.60754 346.049 7.26874C345.818 7.2846 345.711 7.27306 345.614 7.30141C342.929 8.09768 340.175 8.47971 337.386 8.56285C336.024 8.60369 334.656 8.45042 333.29 8.41822C330.131 8.34373 327.571 7.10199 325.728 4.51569C324.919 3.38015 324.334 2.12592 324.076 0.587692C324.537 0.748192 324.877 0.888046 325.229 0.985115C327.248 1.54303 329.254 2.16917 331.298 2.61512C332.746 2.93132 334.244 3.05146 335.727 3.16294C337.088 3.2653 338.469 3.35371 339.823 3.23838C341.43 3.10143 343.02 2.7492 344.614 2.47433C347.219 2.02502 349.813 1.51228 352.426 1.12112C354.967 0.740528 357.525 0.481022 360.076 0.162903C360.356 0.127823 360.631 0.0552521 360.909 0.000469208C361.514 0.000469208 362.12 0.000469208 362.726 0.000469208ZM266.412 18.5443C266.512 18.2338 266.61 17.9326 266.707 17.6303C267.552 14.982 265.834 12.8484 263.415 12.9065C260.875 12.968 259.245 15.0656 259.222 17.2545C259.195 19.7807 260.59 21.6914 262.755 22.8841C264.63 23.9178 266.734 24.0523 268.87 23.9447C271.263 23.8241 273.195 22.849 274.784 21.1167C276.131 19.6467 277.106 17.9619 277.16 15.934C277.257 12.3174 276.11 9.21304 273.223 6.84058C271.379 5.32541 269.264 4.48926 266.941 4.31915C264.024 4.10578 261.214 4.76847 258.617 6.08564C252.349 9.26446 246.133 12.5471 239.867 15.7326C236.447 17.4717 233.013 19.1988 229.503 20.7461C226.008 22.2873 222.413 23.602 218.858 25.0057C218.029 25.333 217.184 25.6189 216.258 25.9562C217.347 26.3551 218.321 26.6723 219.263 27.0625C224.166 29.0894 229.126 30.9929 233.937 33.2168C238.004 35.0967 241.88 37.3851 245.869 39.437C249.888 41.5043 253.941 43.5077 257.984 45.5299C260.982 47.0297 264.127 47.9019 267.507 47.5049C269.755 47.2411 271.763 46.3636 273.485 44.859C275.538 43.0647 276.607 40.7984 277.045 38.1242C277.648 34.4499 276.153 31.6925 273.379 29.5637C271.126 27.8337 268.47 27.6151 265.709 28.0706C262.883 28.5368 260.876 29.9227 259.614 32.5748C258.464 34.99 260.002 38.0362 261.955 38.6787C263.367 39.1429 264.718 39.1333 265.84 38.1011C266.811 37.2068 267.199 36.0463 266.778 34.7104C266.65 34.3029 266.553 33.8853 266.442 33.4768C267.956 32.804 269.346 33.0885 270.41 34.2375C271.254 35.1496 271.363 36.3649 271.324 37.4226C271.253 39.3073 270.454 41.0411 268.862 42.1675C265.713 44.3948 260.717 44.5164 257.52 41.3285C255.556 39.3707 254.546 37.0684 254.877 34.2567C254.942 33.7103 254.968 33.1596 255.021 32.5056C252.784 34.3557 250.424 35.6056 247.549 35.2692C247.502 32.2259 249.127 30.0582 251.301 28.0932C250.001 28.1965 248.868 28.3205 247.733 28.37C244.75 28.5003 241.767 28.654 238.783 28.6944C235.222 28.7429 231.897 27.8203 228.789 25.976C229.177 25.7241 229.526 25.4738 229.899 25.2638C230.13 25.1335 230.404 25.0797 230.646 24.9653C234.662 23.0677 238.921 22.9826 243.231 23.2719C245.621 23.4324 248.012 23.5987 250.402 23.7544C250.597 23.7669 250.795 23.7169 251.099 23.6847C248.999 21.7351 247.584 19.5693 247.525 16.7182C248.9 16.5226 250.266 16.6332 251.508 17.23C252.736 17.8196 253.875 18.5923 255.03 19.2714C255.03 19.2214 255.035 19.0859 255.03 18.9503C254.985 17.6932 254.714 16.3938 254.938 15.1867C255.449 12.4476 257.18 10.5009 259.563 9.1227C261.688 7.89347 263.949 7.86799 266.243 8.48597C267.618 8.85648 268.911 9.46917 269.828 10.5936C271.017 12.0507 271.502 13.7595 271.22 15.6336C271.043 16.8158 270.611 17.8917 269.47 18.4909C268.494 19.0051 267.483 18.8216 266.412 18.5443ZM296.03 33.4696C295.929 33.7699 295.817 34.0693 295.727 34.3749C295.139 36.3673 295.972 38.2342 297.775 38.7652C300.557 39.585 303.05 37.7248 303.226 34.7108C303.383 32.0284 301.765 30.1168 299.527 28.9448C297.351 27.8054 294.897 27.568 292.479 28.073C289.383 28.7203 287.227 30.6132 285.919 33.4845C285.208 35.0463 285.109 36.6609 285.431 38.326C285.815 40.3087 286.455 42.192 287.832 43.7115C290.316 46.452 293.37 47.774 297.141 47.552C299.318 47.4237 301.403 46.9797 303.311 46.045C309.018 43.2497 314.65 40.302 320.329 37.449C325.058 35.0732 329.755 32.6219 334.573 30.4393C338.315 28.7439 342.222 27.4099 346.059 25.9139C345.497 25.703 344.882 25.4531 344.255 25.2393C339.074 23.4718 334.008 21.4093 329.112 18.9701C323.936 16.3914 318.847 13.6413 313.703 10.9983C310.476 9.3399 307.231 7.71758 303.972 6.12313C301.897 5.10773 299.685 4.44746 297.383 4.31387C293.613 4.0957 290.377 5.2908 287.841 8.21637C286.265 10.0338 285.541 12.1799 285.29 14.4842C284.885 18.2007 287.327 21.6635 290.274 23.1071C292.873 24.3801 295.542 24.1201 298.244 23.4665C300.991 22.8019 302.841 20.2757 303.255 17.8686C303.551 16.1483 301.966 13.425 299.705 12.9839C297.196 12.4947 294.951 14.8292 295.646 16.9446C295.817 17.4659 295.869 18.0267 295.974 18.5577C295.643 18.6385 295.358 18.713 295.071 18.7778C293.743 19.0763 292.31 18.4165 291.722 17.1988C290.608 14.8897 291.049 11.9839 293.006 10.2327C295.28 8.19956 298.057 7.69354 301.04 8.38889C302.948 8.83388 304.442 9.9449 305.657 11.401C307.206 13.2549 307.96 15.3943 307.578 17.8504C307.5 18.3482 307.471 18.8538 307.409 19.4559C309.633 17.6005 311.983 16.317 314.974 16.7221C314.895 18.0709 314.646 19.3569 313.902 20.4756C313.16 21.589 312.337 22.6481 311.487 23.8178C312.168 23.7424 312.83 23.6395 313.497 23.6006C316.547 23.4233 319.597 23.1792 322.649 23.1321C324.292 23.1066 325.954 23.3454 327.582 23.6169C329.742 23.9778 331.773 24.7496 333.653 25.9548C333.192 26.2282 332.793 26.5118 332.358 26.7155C329.128 28.2264 325.733 28.903 322.165 28.7117C319.765 28.5829 317.363 28.4983 314.962 28.3734C313.739 28.31 312.518 28.2009 311.132 28.1009C313.371 30.0664 314.928 32.2548 314.963 35.2524C313.52 35.4389 312.179 35.2851 310.938 34.6561C309.734 34.0453 308.574 33.347 307.565 32.7829C307.565 33.7714 307.603 34.9194 307.556 36.0631C307.478 37.9617 306.614 39.5399 305.347 40.8902C303.073 43.3145 300.301 44.1416 297.002 43.5822C293.636 43.0118 290.8 40.3501 291.207 36.4845C291.493 33.7848 293.329 32.4979 296.03 33.4696ZM281.215 17.6803C280.505 21.2075 278.686 23.9682 275.704 25.9615C278.816 27.9515 280.497 30.8155 281.234 34.3096C281.67 31.6541 283.351 28.1062 286.718 25.9567C283.732 23.9548 281.982 21.1417 281.215 17.6803Z" fill="#202020"/>
</svg>
