<svg width="150" height="206" viewBox="0 0 150 206" fill="none" xmlns="http://www.w3.org/2000/svg">
<path d="M149.998 35.9886C148.874 38.509 147.417 40.6944 144.465 41.3521C142.274 41.8404 140.13 41.7176 138.135 40.8749C139.043 40.1701 140.041 39.5192 140.89 38.7138C143.177 36.5446 142.905 34.5572 141.941 32.3148C141.312 30.8523 137.875 29.7478 135.958 30.2219C131.091 31.425 128.562 37.677 131.332 41.8795C133.625 45.3579 136.159 48.6806 138.418 52.1795C140.693 55.7032 141.792 59.4131 139.191 63.3389C138.927 63.7373 138.921 64.3031 138.842 64.6078C140.144 63.9309 141.438 63.1211 142.836 62.5701C144.153 62.0508 146.239 62.8078 146.95 63.8731C147.846 65.2165 147.719 66.4475 146.8 67.8312C143.706 72.4848 140.414 76.9734 136.59 81.0686C135.907 81.8008 135.296 82.6248 134.786 83.4854C134.115 84.6184 134.375 85.9524 135.207 86.2825C136.28 86.7082 137.085 86.1702 137.637 84.6612C137.682 84.5377 137.749 84.4217 137.805 84.3019C145.532 87.9802 149.387 99.9853 141.379 108.294C142.132 109.747 143.138 111.047 143.495 112.504C144.425 116.29 143.662 119.913 141.767 123.313C139.931 126.607 137.065 128.928 134.152 131.171C130.264 134.163 126.204 136.938 122.381 140.005C118.07 143.464 114.547 147.604 112.913 153.002C111.485 157.722 111.964 162.348 114.063 166.803C114.553 167.843 115.118 168.846 115.709 169.982C113.573 171.529 112.004 173.683 110.944 176.182C108.663 181.559 108.332 186.911 111.73 191.968C113.826 195.087 117.111 196.576 120.651 197.486C123.695 198.269 126.726 198.899 129.906 197.858C133.895 196.551 135.82 193.65 136.733 189.844C137.274 187.586 137.207 185.387 136.075 183.271C134.517 180.357 130.584 179.03 127.546 180.443C125.711 181.296 125.059 184.604 126.584 186.052C127.512 186.934 128.751 187.494 129.848 188.197C127.972 190.797 123.703 191.041 120.874 188.621C117.702 185.909 116.04 180.463 119.502 176.219C120.182 175.386 121.196 174.797 122.122 174.198C122.881 173.707 123.741 173.369 124.496 172.993C123.04 170.848 121.516 168.832 120.247 166.669C118.789 164.185 118.984 161.489 119.576 158.748C120.531 154.32 123.67 151.42 126.895 148.773C130.856 145.521 135.29 142.844 139.337 139.688C141.999 137.613 143.575 134.656 144.581 131.287C146.476 132.595 147.184 134.425 147.329 136.478C147.613 140.493 146.442 143.983 143.29 146.675C142.661 147.211 142.019 147.731 141.138 148.462C144.34 149.025 146.08 150.682 146.7 153.304C147.461 156.524 146.846 159.569 144.387 161.891C142.584 163.593 140.276 164.032 137.703 163.257C139.656 161.7 140.688 159.925 140.013 157.458C139.345 155.014 136.684 153.395 134.202 153.999C128.294 155.435 126.375 160.185 127.746 165.643C128.765 169.7 132.395 172.139 136.43 172.054C138.296 172.015 140.177 172.095 142.022 171.877C143.131 171.746 144.234 171.244 145.246 170.728C146.215 170.234 147.064 169.507 147.799 168.997C147.001 170.995 146.079 173.127 145.298 175.308C144.493 177.554 144.897 179.894 145.774 181.93C146.725 184.137 146.858 186.344 147.09 188.638C147.612 193.787 145.451 197.894 142.376 201.717C140.023 204.642 136.956 206.039 133.191 205.999C130.442 205.969 127.692 205.997 124.942 205.992C119.319 205.984 114.548 203.953 110.387 200.216C107.994 198.068 105.864 195.752 104.32 192.946C102.831 190.24 101.831 187.377 101.665 184.25C101.449 180.194 102.106 176.302 103.775 172.599C104.245 171.556 104.742 170.442 105.519 169.641C106.594 168.535 106.515 167.619 105.803 166.408C104.133 163.567 103.445 160.378 103.516 157.175C103.603 153.347 104.946 149.827 107.237 146.65C110.767 141.756 114.827 137.39 119.558 133.628C123.256 130.687 127.087 127.881 130.557 124.692C133.743 121.765 136.065 118.088 136.869 113.769C137.482 110.474 137.88 107.146 137.408 103.722C137.051 101.137 136.919 98.6034 135.309 96.3778C133.178 93.4317 130.347 91.8768 126.718 91.5678C123.346 91.2811 120.119 91.6094 117.06 93.1506C112.285 95.5569 110.823 102.553 114.877 106.824C116.843 108.894 119.366 109.808 122.273 108.835C124.833 107.979 125.745 105.824 126.408 103.508C126.601 102.833 126.69 102.128 126.826 101.435C129.671 102.836 130.562 109.766 128.954 113.411C127.234 117.309 121.998 119.887 116.4 117.802C116.25 119.391 116.225 121.038 115.913 122.628C115.377 125.362 113.639 127.284 111.426 128.937C110.009 129.995 108.847 131.393 107.603 132.669C107.1 133.185 106.682 133.782 106.226 134.342C106.012 134.243 105.798 134.144 105.585 134.045C105.983 131.629 106.284 129.19 106.812 126.801C107.202 125.039 108.235 123.368 108.366 121.61C108.599 118.462 108.716 115.224 108.222 112.128C107.818 109.6 106.587 107.159 105.475 104.795C104.175 102.03 103.926 99.2456 104.908 96.4286C105.584 94.4921 106.607 92.6747 107.457 90.8424C99.9737 88.5535 98.9193 83.7379 99.1024 77.1285C100.615 78.2683 102.065 79.4169 103.573 80.4847C106.097 82.2723 109.026 83.1032 112.009 83.638C115.988 84.3522 119.869 83.9172 123.621 82.2829C127.421 80.6281 129.619 77.6187 131.128 73.9709C132.384 70.933 132.904 67.7245 133.141 64.4806C133.526 59.1972 129.724 53.727 124.652 51.7799C120.755 50.2839 117.075 50.4794 113.465 52.5164C110.34 54.2792 107.971 59.0011 108.991 61.8429C109.707 63.8378 111.258 64.5178 112.972 64.9118C116.615 65.7501 119.349 63.7472 119.948 60.0057C120.061 59.2977 120.213 58.5959 120.376 57.739C122.022 58.6065 123.027 59.9027 123.605 61.6791C125.081 66.2179 122.203 71.7812 118.125 72.725C114.468 73.5719 110.831 73.3492 107.286 71.9897C103.463 70.5235 101.235 67.5514 100.036 63.9054C99.1068 61.0779 99.5568 58.102 100.385 55.2366C100.447 55.0232 100.448 54.7924 100.524 54.2191C98.7236 54.963 97.1217 55.537 95.5997 56.2729C92.8301 57.6125 90.3331 59.3635 88.3224 61.7015C84.7121 65.8984 86.3397 71.3773 92.1126 73.0284C88.6005 74.8402 84.9184 74.6298 81.787 72.5314C78.3267 70.2126 77.8148 66.818 78.7068 63.1689C76.4435 62.8816 74.3271 62.6886 72.2395 62.3306C68.9043 61.7585 66.5004 59.6973 64.5834 57.1012C61.5094 52.939 58.628 48.6353 55.5247 44.4955C54.0608 42.5428 51.9801 41.2479 49.6518 40.4121C49.2536 40.2694 48.8467 40.1496 48.3298 39.9821C50.5975 38.4594 51.1825 36.2617 51.2975 33.8368C51.5232 29.0703 50.505 24.6152 47.4529 20.8706C43.7333 16.3063 39.2736 13.0351 33.0033 12.5145C27.0348 12.0188 22.2076 13.9571 18.2036 18.1311C15.8622 20.5715 14.4715 23.6131 13.9264 26.9246C13.6439 28.6427 13.6133 30.4831 13.902 32.1956C14.6271 36.5024 18.4573 39.5223 22.8857 39.4913C24.2883 39.4813 25.6965 39.3845 27.0897 39.2238C30.8181 38.7945 33.722 34.1303 32.4507 30.6866C31.7525 28.7966 30.4025 27.7164 28.5105 27.2305C27.3185 26.9246 26.1097 26.6857 24.8215 26.3972C28.4511 23.404 35.409 23.6001 39.2599 28.5546C42.1694 32.2974 41.5557 39.6085 35.3265 42.7333C37.3066 43.4301 39.2074 44.112 41.1169 44.7691C45.7766 46.3724 49.6718 52.0343 49.5318 56.647C49.4937 57.9041 49.5262 59.1637 49.5262 60.6026C47.1185 58.6592 45.0815 56.8834 42.9089 55.2906C39.2474 52.607 34.9315 51.3518 30.6568 50.0364C26.8566 48.8674 22.9176 48.0198 19.2843 46.4661C13.5726 44.0233 9.94366 39.4925 7.99542 33.6376C7.77165 32.9656 7.49664 32.311 7.25037 31.6626C6.21217 32.2788 5.26276 33.0451 4.17706 33.444C1.93504 34.268 0.121796 32.8751 0.0149078 30.5563C-0.185104 26.2073 1.64752 22.6253 4.26831 19.3889C6.04593 17.193 8.05417 15.1814 9.87866 13.176C3.97017 11.4851 0.850601 4.94773 2.46321 0.78305C5.43089 4.95704 9.77866 6.42696 14.6221 7.04186C19.1405 7.61519 23.4008 6.50204 27.7135 5.44846C32.1569 4.36262 36.6672 3.76571 41.2138 4.97503C43.6683 5.62778 45.4353 7.21063 47.0254 9.34137C48.5274 3.13902 53.3089 1.74108 58.5449 1.05482C57.5648 2.88339 56.4385 4.54318 55.7553 6.36678C54.789 8.94488 54.9252 11.5633 55.9172 14.2258C57.3273 18.0108 58.5374 21.8838 57.9354 26.5139C59.5299 25.6514 60.8556 25.0657 62.0363 24.2683C64.6509 22.5031 67.401 21.0803 70.5212 20.4555C75.4247 19.4739 80.0912 19.9119 84.364 22.7407C88.2767 25.3312 92.4464 27.4936 97.0973 28.2413C101.524 28.953 105.643 28.0713 109.346 25.1078C113.178 22.0414 113.601 15.3501 110.753 11.5577C108.362 8.37466 101.411 6.98354 98.6293 10.4949C96.9623 12.5989 96.6329 14.9108 98.4861 16.2126C99.3668 16.8312 100.606 16.9826 101.708 17.2395C102.266 17.3692 102.879 17.2625 103.601 17.2625C102.841 19.7469 101.239 21.3775 98.8374 21.8379C95.9172 22.3976 92.9545 21.9552 90.9832 19.5539C89.103 17.2643 88.2311 15.638 90.7238 9.88988C88.3674 10.3087 86.0072 10.6692 83.6758 11.1619C81.8713 11.5428 80.17 11.4876 78.408 10.8696C75.2465 9.76082 72.032 8.79969 68.7568 7.75107C70.7963 4.92043 73.5233 3.03851 76.9523 2.37397C81.0619 1.57727 85.1609 2.0085 89.2018 3.01989C90.5975 3.36922 91.9788 3.81225 93.3952 4.02693C93.9883 4.1169 94.7465 3.86561 95.2759 3.52931C99.4687 0.866194 104.065 0.465362 108.836 1.07778C114.655 1.82422 117.981 5.31258 119.469 10.7722C119.515 10.9391 119.67 11.0762 119.538 10.8845C121.241 9.06712 122.934 7.12749 124.773 5.33553C126.407 3.74275 128.606 3.44058 130.776 3.22651C133.09 2.99817 135.422 2.91751 137.721 2.5961C139.335 2.37025 140.683 1.5357 141.454 0C141.552 0 141.65 0 141.748 0C141.826 2.9839 140.301 5.17669 137.935 6.67578C135.466 8.24126 132.757 9.42886 130.191 10.851C127.348 12.4277 125.048 14.5559 123.484 17.4567C122.077 20.0658 120.711 22.7239 119.018 25.1476C116.685 28.4845 114.138 31.7247 109.35 32.0318C109.785 32.4438 110.076 32.7621 110.411 33.0277C111.489 33.8858 111.951 35.0126 111.639 36.3206C111.34 37.5758 110.453 38.465 109.146 38.5854C107.937 38.697 106.608 38.7945 105.497 38.4172C101.961 37.2166 98.4961 35.8099 95.0184 34.4449C93.6508 33.9082 92.322 33.2722 90.7769 32.5946C90.7769 34.1768 90.8619 35.5115 90.7588 36.8313C90.5544 39.4509 89.93 41.9782 87.9605 43.8768C85.6778 46.0765 83.0214 46.9811 79.6999 46.5939C74.8465 46.0287 70.3844 40.7577 72.8851 35.1708C73.1583 35.6083 73.4127 35.9837 73.6346 36.3777C75.0165 38.8311 77.2998 39.1481 79.785 38.8937C82.2626 38.6406 83.3477 37.0298 83.5783 34.7514C83.6533 34.0124 83.5764 33.2213 83.3902 32.5003C82.6839 29.7671 81.2788 27.6984 78.3161 26.8471C76.5272 26.3333 74.8203 26.3625 73.0383 26.6181C69.9943 27.0537 67.3048 28.178 65.7197 30.9019C64.6815 32.6852 63.8233 34.6329 63.2552 36.6122C62.3107 39.9008 62.4926 43.2489 64.2933 46.2297C67.4967 51.533 72.2314 54.5684 78.5474 54.6826C82.1345 54.7477 85.6078 54.0639 88.8999 52.4389C93.1252 50.3528 97.3936 48.3257 101.757 46.5493C106.638 44.5625 111.713 43.2092 117.072 43.3023C118.664 43.3296 120.256 43.3066 121.746 43.3066C118.927 36.7891 120.776 31.1067 126.004 26.4208C127.902 24.7188 130.358 23.633 132.547 22.2462C133.152 21.8627 133.859 21.5165 134.267 20.9686C136.723 17.6633 139.031 14.2475 141.54 10.9832C143.175 8.85678 145.415 7.47124 147.687 6.80112C147.004 8.98956 145.902 11.2289 145.671 13.5532C145.289 17.3952 144.682 21.035 141.928 24.1262C145.706 25.5763 148.749 27.6599 150 31.6024C149.998 33.0624 149.998 34.5255 149.998 35.9886Z" fill="#202020"/>
</svg>
