<svg width="375" height="27" viewBox="0 0 375 27" fill="none" xmlns="http://www.w3.org/2000/svg">
<g clip-path="url(#clip0_9_1101)">
<path d="M175.226 -24.9995C176.32 -24.7799 177.438 -24.6362 178.506 -24.3243C180.714 -23.679 182.531 -22.4315 184.017 -20.6482C185.19 -19.2402 186.189 -17.749 186.742 -16.0037C187.049 -15.0344 187.331 -14.0306 187.424 -13.0238C187.866 -8.25344 186.363 -4.11401 183.204 -0.544985C183.044 -0.3643 182.931 -0.141809 182.772 0.0407982C181.897 1.05043 181.937 1.00959 182.827 1.99711C185.128 4.54737 186.787 7.41718 187.298 10.8915C188.098 16.3323 186.359 20.8148 182.204 24.3233C180.581 25.6943 178.599 26.4233 176.435 26.6583C172.958 27.036 169.551 26.6309 166.144 26.0018C162.669 25.3603 159.17 24.8409 155.707 24.1469C153.106 23.626 150.482 23.5059 147.881 23.7217C145.502 23.9187 143.144 24.4655 140.803 24.9773C139.367 25.2916 137.98 25.8298 136.487 26.2936C136.99 24.4516 137.736 22.7586 139.041 21.3833C140.431 19.9196 142.126 18.9494 144.157 18.6524C144.853 18.5505 145.556 18.3905 146.252 18.4097C148.818 18.4799 151.39 18.5327 153.945 18.7542C155.458 18.8854 156.946 19.3198 158.445 19.6183C158.359 19.7173 158.273 19.8163 158.187 19.9153C157.649 19.2175 157.163 18.4707 156.563 17.8316C155.012 16.1804 154.041 14.3308 154.242 11.9901C154.284 11.5062 154.325 11.2505 154.957 11.2774C158.207 11.4163 160.408 13.1203 161.975 15.8229C162.164 16.1487 162.321 16.4928 162.498 16.8253C162.52 16.8667 162.573 16.8921 162.593 16.9085C162.834 15.7196 163.021 14.5048 163.334 13.3231C163.861 11.3274 165.142 9.86558 166.778 8.65412C168.101 7.67381 169.605 7.02074 171.191 7.0539C174.555 7.12453 176.678 8.26632 177.783 11.7979C178.408 13.7921 177.67 16.5236 176.13 17.2006C175.425 17.5106 174.597 17.5409 173.763 17.711C173.821 16.8859 173.904 16.2958 173.897 15.7066C173.881 14.3448 172.95 12.5908 171.278 12.376C170.4 12.263 169.695 12.6441 169.112 13.2116C166.638 15.6182 167.129 19.5625 170.026 21.2243C174.024 23.5184 178.627 22.4054 181.31 18.9162C183.544 16.0113 184.143 12.1664 182.176 8.64115C180.297 5.27203 177.407 3.53437 173.678 3.05574C172.278 2.87602 170.842 2.63142 169.456 2.76405C167.427 2.95868 165.412 3.39693 163.419 3.85537C159.616 4.73045 156.062 6.28647 152.572 8.00106C147.037 10.7205 141.482 13.4005 135.962 16.1487C132.404 17.9195 128.92 19.8403 125.351 21.5866C122.251 23.1032 119.111 24.552 115.919 25.862C114.599 26.4041 113.104 26.5434 111.676 26.7981C109.079 27.2614 106.536 26.8798 104.044 26.1369C102.016 25.5319 100.136 24.6587 98.5158 23.2113C96.1721 21.1171 94.7845 18.514 94.024 15.524C93.9576 15.2631 93.9889 14.9786 93.9398 14.7119C93.8917 14.4524 93.7985 14.2016 93.7019 13.8657C93.3307 16.623 92.4321 19.1123 90.7903 21.2747C89.2528 23.2993 87.2533 24.7428 84.8633 25.6501C82.2955 26.6251 79.6426 27.123 76.9047 26.9553C74.6085 26.8145 72.3695 26.356 70.2647 25.3469C65.5642 23.0936 60.8205 20.9278 56.1483 18.6173C50.6214 15.8844 45.1877 12.9622 39.6449 10.2625C35.2612 8.12696 30.929 5.83282 26.2217 4.44789C23.8227 3.74196 21.4188 3.06825 18.8881 2.84624C15.8784 2.58242 12.9808 2.85632 10.2231 4.04999C7.01301 5.43925 4.96012 7.91311 4.31781 11.3437C3.37646 16.3746 6.34907 21.1464 11.5356 22.2723C13.9029 22.786 16.3847 22.3651 18.2693 20.6375C20.8871 18.2377 20.3333 14.4514 17.6337 12.6998C16.1977 11.7681 14.5582 12.6148 13.9428 14.2251C13.5659 15.2112 13.6111 16.3583 13.4553 17.5217C11.3337 18.0546 10.051 16.6283 9.59091 14.5341C8.84715 11.1486 11.4313 7.46381 15.0337 7.14425C18.1986 6.86361 20.5443 8.13369 22.5333 10.4326C23.9092 12.0228 24.5083 13.8642 24.6179 15.9181C24.6357 16.2549 24.7573 16.586 24.7987 16.7739C25.5799 15.7398 26.3472 14.5644 27.2751 13.5331C28.7126 11.9353 30.6126 11.289 32.7362 11.3082C32.8905 11.3096 33.1545 11.6321 33.1775 11.8277C33.4352 14.0156 32.6775 15.8638 31.2285 17.476C30.5347 18.2478 29.8737 19.0488 29.4862 19.501C30.6222 19.2958 32.2631 18.9743 33.9131 18.7105C34.8747 18.5572 35.8526 18.3948 36.8199 18.4145C39.0833 18.4602 41.354 18.5193 43.6031 18.7538C45.2415 18.9244 46.6238 19.7682 47.8699 20.8922C49.4959 22.3588 50.3382 24.2152 50.9685 26.233C48.8194 25.6208 46.7266 24.9523 44.5973 24.4343C41.3406 23.6419 37.9978 23.4353 34.6828 23.7245C32.0074 23.9581 29.3713 24.6318 26.715 25.0951C24.3227 25.5122 21.9381 25.9975 19.5299 26.2897C17.2097 26.5713 14.865 26.7703 12.5303 26.7779C9.35533 26.7885 6.58128 25.6837 4.25627 23.4194C2.20962 21.4261 0.950004 19.0397 0.20577 16.3328C0.123558 16.0339 0.0682693 15.7278 0.000480507 15.4245C0.000480507 13.9944 0.000480507 12.5648 0.000480507 11.1347C0.28702 10.115 0.496637 9.06594 0.874523 8.08082C1.83318 5.58198 3.25578 3.36618 5.13079 1.44015C5.28608 1.2806 5.35147 0.829857 5.23945 0.653976C4.93656 0.178236 4.50242 -0.211494 4.14281 -0.654079C2.93319 -2.14425 1.79472 -3.68728 1.15914 -5.52105C0.725004 -6.77239 0.383175 -8.05546 0 -9.32458C0 -10.6994 0 -12.0743 0 -13.4491C0.0427886 -13.4794 0.119712 -13.5063 0.123078 -13.5399C0.289905 -15.3732 0.978369 -17.0297 1.91876 -18.578C3.738 -21.5732 6.18753 -23.7722 9.73225 -24.5127C10.5597 -24.6857 11.3914 -24.8376 12.2212 -24.9991C12.827 -24.9991 13.4323 -24.9991 14.038 -24.9991C14.315 -24.9438 14.59 -24.8587 14.8698 -24.839C15.9852 -24.7617 17.1111 -24.7698 18.2169 -24.6247C19.7669 -24.4214 21.3035 -24.1153 22.8438 -23.8433C25.4727 -23.3791 28.0944 -22.8683 30.7309 -22.4521C32.7069 -22.1403 34.6968 -21.8914 36.6901 -21.7232C37.6588 -21.6415 38.6478 -21.8404 39.6285 -21.8582C42.2771 -21.9063 44.8199 -22.5314 47.3449 -23.2426C48.5685 -23.5872 49.7675 -24.0187 51.0613 -24.4378C50.8132 -23.8107 50.5824 -23.272 50.3853 -22.7208C49.5723 -20.4497 48.0877 -18.7327 45.9747 -17.615C44.5507 -16.8615 42.9795 -16.662 41.3574 -16.5366C38.6454 -16.3266 35.9708 -16.4112 33.3021 -16.8682C31.9146 -17.1056 30.5372 -17.405 29.1795 -17.6722C29.9102 -16.9004 30.6655 -16.1296 31.3905 -15.3304C32.753 -13.8287 33.4001 -12.0762 33.1987 -10.0343C33.1521 -9.56004 32.9934 -9.27652 32.4458 -9.32121C31.1102 -9.43029 29.8492 -9.77293 28.6891 -10.451C26.8357 -11.5341 25.7232 -13.2343 24.8386 -15.1502C24.6684 -14.0522 24.5799 -12.9758 24.3232 -11.9407C23.8809 -10.1574 22.8847 -8.69938 21.516 -7.46053C19.4241 -5.56717 17.0443 -4.80455 14.2529 -5.36967C10.8222 -6.06455 8.66735 -10.0492 9.74283 -13.1891C10.2909 -14.7889 11.6582 -15.8797 13.0005 -15.7596C13.4606 -15.7182 13.8515 -15.5799 13.6703 -15.0157C13.3698 -14.0796 13.4948 -13.1627 13.8972 -12.3309C14.7015 -10.6658 16.2203 -9.88489 17.7371 -10.8522C19.7914 -12.1627 20.7486 -15.2675 19.1876 -17.6241C17.8333 -19.6683 15.7376 -20.3877 13.4703 -20.5151C10.2645 -20.6948 7.66878 -19.1859 5.90099 -16.6817C4.40819 -14.5678 3.68848 -12.044 4.29329 -9.35341C5.0606 -5.94057 7.11109 -3.50371 10.2496 -2.10917C12.764 -0.991896 15.4563 -0.684341 18.2477 -0.869833C20.9515 -1.04908 23.5174 -1.7401 26.0756 -2.48543C30.4179 -3.75119 34.4516 -5.78583 38.4833 -7.7825C44.4949 -10.76 50.4339 -13.884 56.4305 -16.8922C59.957 -18.6611 63.5272 -20.344 67.0955 -22.0288C68.6777 -22.776 70.2767 -23.5036 71.9176 -24.1043C73.0594 -24.5224 74.2864 -24.7093 75.4753 -24.9995C77.1268 -24.9995 78.7782 -24.9995 80.4297 -24.9995C81.3287 -24.779 82.2326 -24.5766 83.1258 -24.334C86.4172 -23.4402 89.1638 -21.7611 91.111 -18.8807C92.5268 -16.786 93.3634 -14.488 93.7264 -11.9037C94.0831 -13.8609 94.5134 -15.6721 95.4317 -17.3564C97.1326 -20.4747 99.5096 -22.7799 102.952 -23.8558C104.296 -24.2758 105.662 -24.6208 107.019 -25C108.67 -25 110.322 -25 111.973 -25C113.056 -24.7309 114.196 -24.5968 115.21 -24.1672C118.784 -22.654 122.353 -21.1182 125.852 -19.4406C129.361 -17.7582 132.766 -15.8629 136.247 -14.1195C141.473 -11.5029 146.722 -8.93438 151.965 -6.35192C155.791 -4.46769 159.704 -2.81462 163.864 -1.79538C167.007 -1.02554 170.136 -0.512798 173.409 -1.0414C176.448 -1.53204 179.077 -2.66804 181.066 -5.03521C182.279 -6.47925 183.157 -8.16165 183.294 -10.0651C183.513 -13.1002 182.675 -15.8201 180.379 -17.9465C177.744 -20.3877 174.792 -21.1643 171.273 -19.9293C167.913 -18.75 166.111 -14.8638 168.783 -11.6749C169.854 -10.3976 171.208 -9.99926 172.472 -10.97C173.706 -11.9166 174.061 -13.2646 173.885 -14.7519C173.781 -15.6317 173.882 -15.8735 174.728 -15.7307C175.36 -15.6241 176.076 -15.3982 176.533 -14.982C177.823 -13.8047 178.172 -12.2602 177.874 -10.5562C177.299 -7.27072 175.151 -5.55564 172.39 -5.22022C168.793 -4.78389 165.703 -6.92952 163.981 -9.86759C163.03 -11.4909 162.865 -13.3054 162.656 -15.0748C162.107 -14.1863 161.635 -13.241 160.997 -12.4241C159.503 -10.5086 157.479 -9.51007 155.062 -9.35101C154.808 -9.33419 154.298 -9.66144 154.305 -9.80849C154.363 -10.908 154.329 -12.0699 154.687 -13.0839C155.372 -15.02 156.882 -16.3925 158.55 -17.7313C158.319 -17.7154 158.212 -17.7269 158.116 -17.6986C155.43 -16.9023 152.677 -16.5203 149.888 -16.4372C148.525 -16.3963 147.157 -16.5496 145.791 -16.5818C142.632 -16.6563 140.072 -17.898 138.229 -20.4843C137.42 -21.6198 136.835 -22.8741 136.578 -24.4123C137.039 -24.2518 137.378 -24.112 137.73 -24.0149C139.75 -23.457 141.755 -22.8308 143.8 -22.3849C145.247 -22.0687 146.745 -21.9485 148.229 -21.8371C149.59 -21.7347 150.97 -21.6463 152.324 -21.7616C153.931 -21.8986 155.521 -22.2508 157.115 -22.5257C159.719 -22.975 162.314 -23.4877 164.927 -23.8789C167.468 -24.2595 170.026 -24.519 172.576 -24.8371C172.857 -24.8722 173.132 -24.9447 173.41 -24.9995C174.015 -24.9995 174.62 -24.9995 175.226 -24.9995ZM78.9119 -6.45572C79.0119 -6.76615 79.11 -7.06744 79.2066 -7.36971C80.0513 -10.018 78.3335 -12.1516 75.9148 -12.0935C73.3744 -12.032 71.7445 -9.93439 71.7215 -7.7455C71.6945 -5.21926 73.0902 -3.30861 75.2547 -2.1159C77.1301 -1.08224 79.234 -0.947689 81.3696 -1.05533C83.7629 -1.17595 85.6951 -2.15097 87.2835 -3.88334C88.6311 -5.35333 89.6057 -7.03813 89.66 -9.06604C89.7566 -12.6826 88.6095 -15.787 85.723 -18.1594C83.8792 -19.6746 81.7638 -20.5107 79.4407 -20.6809C76.5239 -20.8942 73.7138 -20.2315 71.1167 -18.9144C64.8484 -15.7355 58.6325 -12.4529 52.3671 -9.26739C48.9464 -7.52829 45.5127 -5.80121 42.0031 -4.25385C38.5079 -2.71274 34.9127 -1.39796 31.3573 0.00572014C30.529 0.332972 29.6843 0.618896 28.7573 0.95624C29.8472 1.35509 30.8203 1.67225 31.7631 2.06246C36.6655 4.08941 41.6257 5.99286 46.4372 8.21683C50.5041 10.0967 54.3796 12.3851 58.3685 14.437C62.3883 16.5043 66.4407 18.5077 70.4835 20.5299C73.4816 22.0297 76.6263 22.9019 80.0071 22.5049C82.2552 22.2411 84.2629 21.3636 85.9845 19.859C88.0374 18.0647 89.1066 15.7984 89.5451 13.1242C90.148 9.44991 88.6523 6.69252 85.8792 4.5637C83.6254 2.83373 80.9696 2.61508 78.2085 3.07064C75.383 3.53677 73.3758 4.92268 72.1133 7.57482C70.9638 9.99004 72.5018 13.0362 74.4547 13.6787C75.8672 14.1429 77.2181 14.1333 78.3393 13.1011C79.3104 12.2068 79.6989 11.0463 79.2777 9.71037C79.1494 9.30286 79.0523 8.88526 78.9422 8.47679C80.4556 7.80403 81.8456 8.08851 82.9095 9.2375C83.7542 10.1496 83.8629 11.3649 83.8234 12.4226C83.7533 14.3073 82.9542 16.0411 81.3614 17.1675C78.2124 19.3948 73.2167 19.5164 70.0195 16.3285C68.0561 14.3707 67.0455 12.0684 67.3772 9.25673C67.4416 8.71035 67.4681 8.15963 67.521 7.50561C65.2839 9.35571 62.9238 10.6056 60.0483 10.2692C60.0022 7.22593 61.6267 5.05818 63.8008 3.09323C62.5003 3.19654 61.3681 3.32053 60.2325 3.37003C57.2498 3.50026 54.2666 3.65403 51.2824 3.69439C47.7218 3.74293 44.3968 2.82029 41.2891 0.97595C41.6766 0.724144 42.0261 0.473766 42.3987 0.263767C42.63 0.133539 42.9036 0.0797176 43.1459 -0.0346527C47.1617 -1.93233 51.4209 -2.01738 55.7305 -1.72809C58.1209 -1.56759 60.5113 -1.40132 62.9022 -1.24563C63.0964 -1.23313 63.295 -1.2831 63.5984 -1.3153C61.4983 -3.26488 60.0839 -5.43071 60.0243 -8.28179C61.3998 -8.47737 62.7661 -8.36684 64.008 -7.77C65.2354 -7.18037 66.3743 -6.40766 67.5301 -5.72865C67.5301 -5.77863 67.5344 -5.91414 67.5296 -6.04966C67.4849 -7.30676 67.2133 -8.60616 67.4383 -9.8133C67.9489 -12.5524 69.6796 -14.4991 72.0623 -15.8773C74.1878 -17.1065 76.4489 -17.132 78.7431 -16.514C80.1177 -16.1435 81.4109 -15.5308 82.3282 -14.4064C83.5167 -12.9493 84.0018 -11.2405 83.7201 -9.36638C83.5427 -8.18423 83.1109 -7.1083 81.9696 -6.50905C80.9941 -5.99487 79.983 -6.17844 78.9119 -6.45572ZM108.529 8.46959C108.428 8.76993 108.317 9.06932 108.227 9.37494C107.638 11.3673 108.472 13.2342 110.275 13.7652C113.057 14.585 115.55 12.7248 115.726 9.71083C115.883 7.02842 114.265 5.11681 112.027 3.94476C109.851 2.80538 107.397 2.56799 104.979 3.07305C101.883 3.72034 99.7264 5.61323 98.4192 8.48449C97.7081 10.0463 97.6091 11.6609 97.9312 13.326C98.3148 15.3087 98.9552 17.192 100.332 18.7115C102.815 21.452 105.87 22.774 109.64 22.552C111.818 22.4237 113.902 21.9797 115.811 21.045C121.517 18.2497 127.15 15.302 132.828 12.449C137.557 10.0732 142.255 7.62191 147.073 5.43926C150.815 3.7439 154.721 2.40989 158.558 0.913946C157.996 0.702986 157.381 0.453106 156.755 0.239262C151.573 -1.52819 146.508 -3.59069 141.612 -6.02995C136.436 -8.60856 131.347 -11.3587 126.203 -14.0017C122.976 -15.6601 119.73 -17.2824 116.472 -18.8769C114.397 -19.8923 112.185 -20.5525 109.883 -20.6861C106.113 -20.9043 102.877 -19.7092 100.34 -16.7836C98.7644 -14.9662 98.0403 -12.8201 97.7894 -10.5158C97.385 -6.7993 99.8264 -3.33648 102.774 -1.89292C105.373 -0.619947 108.041 -0.879929 110.744 -1.53347C113.49 -2.19807 115.34 -4.72429 115.754 -7.13136C116.051 -8.85171 114.465 -11.575 112.204 -12.0161C109.696 -12.5053 107.451 -10.1708 108.146 -8.05545C108.317 -7.53405 108.369 -6.97326 108.474 -6.44225C108.143 -6.36152 107.858 -6.28703 107.571 -6.22216C106.242 -5.92374 104.81 -6.58354 104.222 -7.80124C103.108 -10.1103 103.549 -13.0161 105.506 -14.7673C107.779 -16.8004 110.557 -17.3065 113.539 -16.6111C115.448 -16.1661 116.941 -15.0551 118.157 -13.599C119.705 -11.7451 120.46 -9.6057 120.077 -7.14963C120 -6.65178 119.971 -6.14624 119.909 -5.54412C122.133 -7.39951 124.483 -8.68305 127.474 -8.27795C127.394 -6.92905 127.146 -5.6431 126.402 -4.52439C125.66 -3.41097 124.837 -2.35185 123.987 -1.1822C124.667 -1.25764 125.33 -1.36048 125.997 -1.3994C129.047 -1.57673 132.097 -1.82083 135.149 -1.86793C136.791 -1.89339 138.453 -1.65458 140.081 -1.38307C142.242 -1.02218 144.273 -0.250408 146.153 0.954802C145.691 1.22823 145.293 1.51176 144.857 1.71551C141.628 3.22635 138.233 3.90296 134.665 3.7117C132.265 3.58291 129.863 3.49833 127.462 3.37339C126.239 3.30996 125.017 3.20088 123.631 3.10093C125.871 5.06636 127.428 7.25477 127.463 10.2524C126.019 10.4389 124.678 10.2851 123.438 9.65606C122.234 9.04528 121.074 8.34705 120.064 7.78288C120.064 8.77137 120.102 9.9194 120.056 11.0631C119.978 12.9617 119.114 14.5399 117.847 15.8902C115.573 18.3145 112.8 19.1416 109.501 18.5822C106.136 18.0118 103.299 15.3501 103.707 11.4845C103.993 8.78482 105.829 7.49793 108.529 8.46959ZM93.7153 -7.31973C93.0052 -3.79251 91.1864 -1.03177 88.2047 0.961535C91.3163 2.95148 92.997 5.81553 93.7345 9.30958C94.1706 6.65408 95.8514 3.10621 99.2177 0.956724C96.2321 -1.04523 94.4821 -3.85835 93.7153 -7.31973Z" fill="white"/>
<path d="M362.726 -24.9995C363.82 -24.7799 364.938 -24.6362 366.005 -24.3243C368.214 -23.679 370.03 -22.4315 371.516 -20.6482C372.69 -19.2402 373.689 -17.749 374.242 -16.0037C374.549 -15.0344 374.831 -14.0306 374.924 -13.0238C375.366 -8.25344 373.863 -4.11401 370.704 -0.544985C370.544 -0.3643 370.43 -0.141809 370.272 0.0407982C369.397 1.05043 369.437 1.00959 370.327 1.99711C372.627 4.54737 374.287 7.41718 374.798 10.8915C375.598 16.3323 373.859 20.8148 369.704 24.3233C368.08 25.6943 366.099 26.4233 363.935 26.6583C360.458 27.036 357.051 26.6309 353.643 26.0018C350.169 25.3603 346.67 24.8409 343.207 24.1469C340.606 23.626 337.982 23.5059 335.381 23.7217C333.002 23.9187 330.644 24.4655 328.303 24.9773C326.867 25.2916 325.48 25.8298 323.986 26.2936C324.49 24.4516 325.235 22.7586 326.541 21.3833C327.931 19.9196 329.626 18.9494 331.657 18.6524C332.353 18.5505 333.056 18.3905 333.751 18.4097C336.318 18.4799 338.889 18.5327 341.445 18.7542C342.958 18.8854 344.446 19.3198 345.945 19.6183C345.859 19.7173 345.773 19.8163 345.687 19.9153C345.149 19.2175 344.663 18.4707 344.062 17.8316C342.511 16.1804 341.541 14.3308 341.742 11.9901C341.784 11.5062 341.824 11.2505 342.457 11.2774C345.707 11.4163 347.908 13.1203 349.475 15.8229C349.663 16.1487 349.821 16.4928 349.998 16.8253C350.02 16.8667 350.073 16.8921 350.092 16.9085C350.334 15.7196 350.521 14.5048 350.834 13.3231C351.361 11.3274 352.642 9.86558 354.277 8.65412C355.601 7.67381 357.104 7.02074 358.69 7.0539C362.054 7.12453 364.178 8.26632 365.283 11.7979C365.907 13.7921 365.169 16.5236 363.63 17.2006C362.925 17.5106 362.097 17.5409 361.263 17.711C361.321 16.8859 361.403 16.2958 361.397 15.7066C361.38 14.3448 360.45 12.5908 358.778 12.376C357.9 12.263 357.195 12.6441 356.612 13.2116C354.138 15.6182 354.629 19.5625 357.525 21.2243C361.524 23.5184 366.127 22.4054 368.81 18.9162C371.043 16.0113 371.642 12.1664 369.676 8.64115C367.797 5.27203 364.907 3.53437 361.177 3.05574C359.777 2.87602 358.342 2.63142 356.956 2.76405C354.926 2.95868 352.912 3.39693 350.919 3.85537C347.116 4.73045 343.561 6.28647 340.072 8.00106C334.536 10.7205 328.982 13.4005 323.461 16.1487C319.904 17.9195 316.42 19.8403 312.851 21.5866C309.751 23.1032 306.611 24.552 303.419 25.862C302.098 26.4041 300.604 26.5434 299.176 26.7981C296.579 27.2614 294.035 26.8798 291.544 26.1369C289.516 25.5319 287.635 24.6587 286.016 23.2113C283.672 21.1171 282.284 18.514 281.524 15.524C281.457 15.2631 281.489 14.9786 281.44 14.7119C281.392 14.4524 281.298 14.2016 281.202 13.8657C280.83 16.623 279.932 19.1123 278.29 21.2747C276.753 23.2993 274.753 24.7428 272.363 25.6501C269.795 26.6251 267.142 27.123 264.404 26.9553C262.108 26.8145 259.869 26.356 257.764 25.3469C253.064 23.0936 248.32 20.9278 243.648 18.6173C238.121 15.8844 232.687 12.9622 227.145 10.2625C222.761 8.12696 218.429 5.83282 213.721 4.44789C211.322 3.74196 208.919 3.06825 206.388 2.84624C203.378 2.58242 200.481 2.85632 197.723 4.04999C194.513 5.43925 192.46 7.91311 191.818 11.3437C190.876 16.3746 193.849 21.1464 199.035 22.2723C201.403 22.786 203.884 22.3651 205.769 20.6375C208.387 18.2377 207.833 14.4514 205.133 12.6998C203.697 11.7681 202.058 12.6148 201.443 14.2251C201.066 15.2112 201.111 16.3583 200.955 17.5217C198.833 18.0546 197.551 16.6283 197.091 14.5341C196.347 11.1486 198.931 7.46381 202.533 7.14425C205.698 6.86361 208.044 8.13369 210.033 10.4326C211.409 12.0228 212.008 13.8642 212.117 15.9181C212.135 16.2549 212.257 16.586 212.298 16.7739C213.079 15.7398 213.846 14.5644 214.774 13.5331C216.212 11.9353 218.112 11.289 220.235 11.3082C220.39 11.3096 220.654 11.6321 220.677 11.8277C220.935 14.0156 220.177 15.8638 218.728 17.476C218.034 18.2478 217.373 19.0488 216.985 19.501C218.122 19.2958 219.762 18.9743 221.412 18.7105C222.374 18.5572 223.352 18.3948 224.319 18.4145C226.583 18.4602 228.853 18.5193 231.102 18.7538C232.741 18.9244 234.123 19.7682 235.369 20.8922C236.995 22.3588 237.837 24.2152 238.468 26.233C236.319 25.6208 234.226 24.9523 232.097 24.4343C228.84 23.6419 225.497 23.4353 222.182 23.7245C219.507 23.9581 216.871 24.6318 214.214 25.0951C211.822 25.5122 209.437 25.9975 207.029 26.2897C204.709 26.5713 202.364 26.7703 200.03 26.7779C196.855 26.7885 194.081 25.6837 191.756 23.4194C189.709 21.4261 188.449 19.0397 187.705 16.3328C187.623 16.0339 187.568 15.7278 187.5 15.4245C187.5 13.9944 187.5 12.5648 187.5 11.1347C187.786 10.115 187.996 9.06594 188.374 8.08082C189.332 5.58198 190.755 3.36618 192.63 1.44015C192.785 1.2806 192.851 0.829857 192.739 0.653976C192.436 0.178236 192.002 -0.211494 191.642 -0.654079C190.432 -2.14425 189.294 -3.68728 188.658 -5.52105C188.224 -6.77239 187.882 -8.05546 187.499 -9.32458C187.499 -10.6994 187.499 -12.0743 187.499 -13.4491C187.542 -13.4794 187.619 -13.5063 187.622 -13.5399C187.789 -15.3732 188.478 -17.0297 189.418 -18.578C191.237 -21.5732 193.687 -23.7722 197.232 -24.5127C198.059 -24.6857 198.891 -24.8376 199.72 -24.9991C200.326 -24.9991 200.932 -24.9991 201.537 -24.9991C201.814 -24.9438 202.089 -24.8587 202.369 -24.839C203.484 -24.7617 204.61 -24.7698 205.716 -24.6247C207.266 -24.4214 208.803 -24.1153 210.343 -23.8433C212.972 -23.3791 215.594 -22.8683 218.23 -22.4521C220.206 -22.1403 222.196 -21.8914 224.189 -21.7232C225.158 -21.6415 226.147 -21.8404 227.128 -21.8582C229.776 -21.9063 232.319 -22.5314 234.844 -23.2426C236.068 -23.5872 237.267 -24.0187 238.561 -24.4378C238.312 -23.8107 238.082 -23.272 237.885 -22.7208C237.072 -20.4497 235.587 -18.7327 233.474 -17.615C232.05 -16.8615 230.479 -16.662 228.857 -16.5366C226.145 -16.3266 223.47 -16.4112 220.801 -16.8682C219.414 -17.1056 218.036 -17.405 216.679 -17.6722C217.409 -16.9004 218.165 -16.1296 218.89 -15.3304C220.252 -13.8287 220.899 -12.0762 220.698 -10.0343C220.651 -9.56004 220.493 -9.27652 219.945 -9.32121C218.61 -9.43029 217.348 -9.77293 216.188 -10.451C214.335 -11.5341 213.222 -13.2343 212.338 -15.1502C212.168 -14.0522 212.079 -12.9758 211.822 -11.9407C211.38 -10.1574 210.384 -8.69938 209.015 -7.46053C206.923 -5.56717 204.544 -4.80455 201.752 -5.36967C198.321 -6.06455 196.167 -10.0492 197.242 -13.1891C197.79 -14.7889 199.157 -15.8797 200.5 -15.7596C200.96 -15.7182 201.351 -15.5799 201.17 -15.0157C200.869 -14.0796 200.994 -13.1627 201.396 -12.3309C202.201 -10.6658 203.72 -9.88489 205.236 -10.8522C207.291 -12.1627 208.248 -15.2675 206.687 -17.6241C205.333 -19.6683 203.237 -20.3877 200.97 -20.5151C197.764 -20.6948 195.168 -19.1859 193.4 -16.6817C191.907 -14.5678 191.188 -12.044 191.793 -9.35341C192.56 -5.94057 194.61 -3.50371 197.749 -2.10917C200.263 -0.991896 202.956 -0.684341 205.747 -0.869833C208.451 -1.04908 211.017 -1.7401 213.575 -2.48543C217.917 -3.75119 221.951 -5.78583 225.983 -7.7825C231.994 -10.76 237.933 -13.884 243.93 -16.8922C247.456 -18.6611 251.026 -20.344 254.595 -22.0288C256.177 -22.776 257.776 -23.5036 259.417 -24.1043C260.559 -24.5224 261.786 -24.7093 262.975 -24.9995C264.626 -24.9995 266.278 -24.9995 267.929 -24.9995C268.828 -24.779 269.732 -24.5766 270.625 -24.334C273.916 -23.4402 276.663 -21.7611 278.61 -18.8807C280.026 -16.786 280.863 -14.488 281.226 -11.9037C281.582 -13.8609 282.013 -15.6721 282.931 -17.3564C284.632 -20.4747 287.009 -22.7799 290.452 -23.8558C291.795 -24.2758 293.162 -24.6208 294.518 -25C296.169 -25 297.821 -25 299.472 -25C300.555 -24.7309 301.695 -24.5968 302.709 -24.1672C306.283 -22.654 309.852 -21.1182 313.351 -19.4406C316.86 -17.7582 320.266 -15.8629 323.746 -14.1195C328.972 -11.5029 334.222 -8.93438 339.464 -6.35192C343.29 -4.46769 347.203 -2.81462 351.363 -1.79538C354.506 -1.02554 357.636 -0.512798 360.908 -1.0414C363.947 -1.53204 366.576 -2.66804 368.565 -5.03521C369.778 -6.47925 370.656 -8.16165 370.793 -10.0651C371.013 -13.1002 370.175 -15.8201 367.878 -17.9465C365.243 -20.3877 362.291 -21.1643 358.773 -19.9293C355.413 -18.75 353.61 -14.8638 356.282 -11.6749C357.352 -10.3976 358.707 -9.99926 359.971 -10.97C361.204 -11.9166 361.56 -13.2646 361.384 -14.7519C361.279 -15.6317 361.381 -15.8735 362.226 -15.7307C362.859 -15.6241 363.575 -15.3982 364.032 -14.982C365.322 -13.8047 365.671 -12.2602 365.373 -10.5562C364.798 -7.27072 362.65 -5.55564 359.888 -5.22022C356.292 -4.78389 353.202 -6.92952 351.48 -9.86759C350.529 -11.4909 350.363 -13.3054 350.155 -15.0748C349.606 -14.1863 349.134 -13.241 348.496 -12.4241C347.002 -10.5086 344.977 -9.51007 342.561 -9.35101C342.307 -9.33419 341.797 -9.66144 341.804 -9.80849C341.861 -10.908 341.827 -12.0699 342.186 -13.0839C342.871 -15.02 344.381 -16.3925 346.049 -17.7313C345.818 -17.7154 345.711 -17.7269 345.614 -17.6986C342.929 -16.9023 340.175 -16.5203 337.386 -16.4372C336.024 -16.3963 334.656 -16.5496 333.29 -16.5818C330.131 -16.6563 327.571 -17.898 325.728 -20.4843C324.919 -21.6198 324.334 -22.8741 324.076 -24.4123C324.537 -24.2518 324.877 -24.112 325.229 -24.0149C327.248 -23.457 329.254 -22.8308 331.298 -22.3849C332.746 -22.0687 334.244 -21.9485 335.727 -21.8371C337.088 -21.7347 338.469 -21.6463 339.823 -21.7616C341.43 -21.8986 343.02 -22.2508 344.614 -22.5257C347.219 -22.975 349.813 -23.4877 352.426 -23.8789C354.967 -24.2595 357.525 -24.519 360.076 -24.8371C360.356 -24.8722 360.631 -24.9447 360.909 -24.9995C361.514 -24.9995 362.12 -24.9995 362.726 -24.9995ZM266.412 -6.45572C266.512 -6.76615 266.61 -7.06744 266.707 -7.36971C267.552 -10.018 265.834 -12.1516 263.415 -12.0935C260.875 -12.032 259.245 -9.93439 259.222 -7.7455C259.195 -5.21926 260.59 -3.30861 262.755 -2.1159C264.63 -1.08224 266.734 -0.947689 268.87 -1.05533C271.263 -1.17595 273.195 -2.15097 274.784 -3.88334C276.131 -5.35333 277.106 -7.03813 277.16 -9.06604C277.257 -12.6826 276.11 -15.787 273.223 -18.1594C271.379 -19.6746 269.264 -20.5107 266.941 -20.6809C264.024 -20.8942 261.214 -20.2315 258.617 -18.9144C252.349 -15.7355 246.133 -12.4529 239.867 -9.26739C236.447 -7.52829 233.013 -5.80121 229.503 -4.25385C226.008 -2.71274 222.413 -1.39796 218.858 0.00572014C218.029 0.332972 217.184 0.618896 216.258 0.95624C217.347 1.35509 218.321 1.67225 219.263 2.06246C224.166 4.08941 229.126 5.99286 233.937 8.21683C238.004 10.0967 241.88 12.3851 245.869 14.437C249.888 16.5043 253.941 18.5077 257.984 20.5299C260.982 22.0297 264.127 22.9019 267.507 22.5049C269.755 22.2411 271.763 21.3636 273.485 19.859C275.538 18.0647 276.607 15.7984 277.045 13.1242C277.648 9.44991 276.153 6.69252 273.379 4.5637C271.126 2.83373 268.47 2.61508 265.709 3.07064C262.883 3.53677 260.876 4.92268 259.614 7.57482C258.464 9.99004 260.002 13.0362 261.955 13.6787C263.367 14.1429 264.718 14.1333 265.84 13.1011C266.811 12.2068 267.199 11.0463 266.778 9.71037C266.65 9.30286 266.553 8.88526 266.442 8.47679C267.956 7.80403 269.346 8.08851 270.41 9.2375C271.254 10.1496 271.363 11.3649 271.324 12.4226C271.253 14.3073 270.454 16.0411 268.862 17.1675C265.713 19.3948 260.717 19.5164 257.52 16.3285C255.556 14.3707 254.546 12.0684 254.877 9.25673C254.942 8.71035 254.968 8.15963 255.021 7.50561C252.784 9.35571 250.424 10.6056 247.549 10.2692C247.502 7.22593 249.127 5.05818 251.301 3.09323C250.001 3.19654 248.868 3.32053 247.733 3.37003C244.75 3.50026 241.767 3.65403 238.783 3.69439C235.222 3.74293 231.897 2.82029 228.789 0.97595C229.177 0.724144 229.526 0.473766 229.899 0.263767C230.13 0.133539 230.404 0.0797176 230.646 -0.0346527C234.662 -1.93233 238.921 -2.01738 243.231 -1.72809C245.621 -1.56759 248.012 -1.40132 250.402 -1.24563C250.597 -1.23313 250.795 -1.2831 251.099 -1.3153C248.999 -3.26488 247.584 -5.43071 247.525 -8.28179C248.9 -8.47737 250.266 -8.36684 251.508 -7.77C252.736 -7.18037 253.875 -6.40766 255.03 -5.72865C255.03 -5.77863 255.035 -5.91414 255.03 -6.04966C254.985 -7.30676 254.714 -8.60616 254.938 -9.8133C255.449 -12.5524 257.18 -14.4991 259.563 -15.8773C261.688 -17.1065 263.949 -17.132 266.243 -16.514C267.618 -16.1435 268.911 -15.5308 269.828 -14.4064C271.017 -12.9493 271.502 -11.2405 271.22 -9.36638C271.043 -8.18423 270.611 -7.1083 269.47 -6.50905C268.494 -5.99487 267.483 -6.17844 266.412 -6.45572ZM296.03 8.46959C295.929 8.76993 295.817 9.06932 295.727 9.37494C295.139 11.3673 295.972 13.2342 297.775 13.7652C300.557 14.585 303.05 12.7248 303.226 9.71083C303.383 7.02842 301.765 5.11681 299.527 3.94476C297.351 2.80538 294.897 2.56799 292.479 3.07305C289.383 3.72034 287.227 5.61323 285.919 8.48449C285.208 10.0463 285.109 11.6609 285.431 13.326C285.815 15.3087 286.455 17.192 287.832 18.7115C290.316 21.452 293.37 22.774 297.141 22.552C299.318 22.4237 301.403 21.9797 303.311 21.045C309.018 18.2497 314.65 15.302 320.329 12.449C325.058 10.0732 329.755 7.62191 334.573 5.43926C338.315 3.7439 342.222 2.40989 346.059 0.913946C345.497 0.702986 344.882 0.453106 344.255 0.239262C339.074 -1.52819 334.008 -3.59069 329.112 -6.02995C323.936 -8.60856 318.847 -11.3587 313.703 -14.0017C310.476 -15.6601 307.231 -17.2824 303.972 -18.8769C301.897 -19.8923 299.685 -20.5525 297.383 -20.6861C293.613 -20.9043 290.377 -19.7092 287.841 -16.7836C286.265 -14.9662 285.541 -12.8201 285.29 -10.5158C284.885 -6.7993 287.327 -3.33648 290.274 -1.89292C292.873 -0.619947 295.542 -0.879929 298.244 -1.53347C300.991 -2.19807 302.841 -4.72429 303.255 -7.13136C303.551 -8.85171 301.966 -11.575 299.705 -12.0161C297.196 -12.5053 294.951 -10.1708 295.646 -8.05545C295.817 -7.53405 295.869 -6.97326 295.974 -6.44225C295.643 -6.36152 295.358 -6.28703 295.071 -6.22216C293.743 -5.92374 292.31 -6.58354 291.722 -7.80124C290.608 -10.1103 291.049 -13.0161 293.006 -14.7673C295.28 -16.8004 298.057 -17.3065 301.04 -16.6111C302.948 -16.1661 304.442 -15.0551 305.657 -13.599C307.206 -11.7451 307.96 -9.6057 307.578 -7.14963C307.5 -6.65178 307.471 -6.14624 307.409 -5.54412C309.633 -7.39951 311.983 -8.68305 314.974 -8.27795C314.895 -6.92905 314.646 -5.6431 313.902 -4.52439C313.16 -3.41097 312.337 -2.35185 311.487 -1.1822C312.168 -1.25764 312.83 -1.36048 313.497 -1.3994C316.547 -1.57673 319.597 -1.82083 322.649 -1.86793C324.292 -1.89339 325.954 -1.65458 327.582 -1.38307C329.742 -1.02218 331.773 -0.250408 333.653 0.954802C333.192 1.22823 332.793 1.51176 332.358 1.71551C329.128 3.22635 325.733 3.90296 322.165 3.7117C319.765 3.58291 317.363 3.49833 314.962 3.37339C313.739 3.30996 312.518 3.20088 311.132 3.10093C313.371 5.06636 314.928 7.25477 314.963 10.2524C313.52 10.4389 312.179 10.2851 310.938 9.65606C309.734 9.04528 308.574 8.34705 307.565 7.78288C307.565 8.77137 307.603 9.9194 307.556 11.0631C307.478 12.9617 306.614 14.5399 305.347 15.8902C303.073 18.3145 300.301 19.1416 297.002 18.5822C293.636 18.0118 290.8 15.3501 291.207 11.4845C291.493 8.78482 293.329 7.49793 296.03 8.46959ZM281.215 -7.31973C280.505 -3.79251 278.686 -1.03177 275.704 0.961535C278.816 2.95148 280.497 5.81553 281.234 9.30958C281.67 6.65408 283.351 3.10621 286.718 0.956724C283.732 -1.04523 281.982 -3.85835 281.215 -7.31973Z" fill="white"/>
</g>
<defs>
<clipPath id="clip0_9_1101">
<rect width="27" height="375" fill="white" transform="matrix(0 -1 1 0 0 27)"/>
</clipPath>
</defs>
</svg>
