<svg width="289" height="248" viewBox="0 0 289 248" fill="none" xmlns="http://www.w3.org/2000/svg">
<path d="M207.222 4H207.217C181.146 4 158.181 15.4299 144.174 34.8557C130.166 15.4299 107.202 4 81.1304 4L81.1256 4C60.6782 4.02464 41.0753 12.1583 26.6168 26.6168C12.1583 41.0753 4.02464 60.6782 4 81.1256V81.1304C4 118.916 27.7565 157.603 72.7284 196.121L72.7383 196.129C93.5439 213.832 116.007 229.489 139.817 242.881L139.848 242.898L139.878 242.915C141.198 243.627 142.674 244 144.174 244C145.674 244 147.15 243.627 148.469 242.915L148.5 242.898L148.53 242.881C172.34 229.489 194.804 213.832 215.609 196.129L215.619 196.121C260.591 157.603 284.348 118.916 284.348 81.1304V81.1256C284.323 60.6782 276.189 41.0753 261.731 26.6168C247.272 12.1583 227.67 4.02464 207.222 4Z" stroke="#202020" stroke-width="8"/>
</svg>
